<?xml version="1.0" encoding="UTF-8"?>
<!DOCTYPE svg PUBLIC "-//W3C//DTD SVG 1.1//EN" "http://www.w3.org/Graphics/SVG/1.1/DTD/svg11.dtd">
<svg version="1.2" width="154.94mm" height="67.31mm" viewBox="0 0 15494 6731" preserveAspectRatio="xMidYMid" fill-rule="evenodd" stroke-width="28.222" stroke-linejoin="round" xmlns="http://www.w3.org/2000/svg" xmlns:ooo="http://xml.openoffice.org/svg/export" xmlns:xlink="http://www.w3.org/1999/xlink" xmlns:presentation="http://sun.com/xmlns/staroffice/presentation" xmlns:smil="http://www.w3.org/2001/SMIL20/" xmlns:anim="urn:oasis:names:tc:opendocument:xmlns:animation:1.0" xml:space="preserve">
 <defs class="ClipPathGroup">
  <clipPath id="presentation_clip_path" clipPathUnits="userSpaceOnUse">
   <rect x="0" y="0" width="15494" height="6731"/>
  </clipPath>
  <clipPath id="presentation_clip_path_shrink" clipPathUnits="userSpaceOnUse">
   <rect x="15" y="6" width="15464" height="6718"/>
  </clipPath>
 </defs>
 <defs class="TextShapeIndex">
  <g ooo:slide="id1" ooo:id-list="id3 id4 id5 id6 id7 id8 id9 id10 id11 id12 id13 id14 id15 id16 id17 id18 id19 id20 id21 id22 id23 id24 id25 id26 id27 id28 id29 id30 id31 id32 id33 id34 id35 id36 id37 id38"/>
 </defs>
 <defs class="EmbeddedBulletChars">
  <g id="bullet-char-template-57356" transform="scale(0.00048828125,-0.00048828125)">
   <path d="M 580,1141 L 1163,571 580,0 -4,571 580,1141 Z"/>
  </g>
  <g id="bullet-char-template-57354" transform="scale(0.00048828125,-0.00048828125)">
   <path d="M 8,1128 L 1137,1128 1137,0 8,0 8,1128 Z"/>
  </g>
  <g id="bullet-char-template-10146" transform="scale(0.00048828125,-0.00048828125)">
   <path d="M 174,0 L 602,739 174,1481 1456,739 174,0 Z M 1358,739 L 309,1346 659,739 1358,739 Z"/>
  </g>
  <g id="bullet-char-template-10132" transform="scale(0.00048828125,-0.00048828125)">
   <path d="M 2015,739 L 1276,0 717,0 1260,543 174,543 174,936 1260,936 717,1481 1274,1481 2015,739 Z"/>
  </g>
  <g id="bullet-char-template-10007" transform="scale(0.00048828125,-0.00048828125)">
   <path d="M 0,-2 C -7,14 -16,27 -25,37 L 356,567 C 262,823 215,952 215,954 215,979 228,992 255,992 264,992 276,990 289,987 310,991 331,999 354,1012 L 381,999 492,748 772,1049 836,1024 860,1049 C 881,1039 901,1025 922,1006 886,937 835,863 770,784 769,783 710,716 594,584 L 774,223 C 774,196 753,168 711,139 L 727,119 C 717,90 699,76 672,76 641,76 570,178 457,381 L 164,-76 C 142,-110 111,-127 72,-127 30,-127 9,-110 8,-76 1,-67 -2,-52 -2,-32 -2,-23 -1,-13 0,-2 Z"/>
  </g>
  <g id="bullet-char-template-10004" transform="scale(0.00048828125,-0.00048828125)">
   <path d="M 285,-33 C 182,-33 111,30 74,156 52,228 41,333 41,471 41,549 55,616 82,672 116,743 169,778 240,778 293,778 328,747 346,684 L 369,508 C 377,444 397,411 428,410 L 1163,1116 C 1174,1127 1196,1133 1229,1133 1271,1133 1292,1118 1292,1087 L 1292,965 C 1292,929 1282,901 1262,881 L 442,47 C 390,-6 338,-33 285,-33 Z"/>
  </g>
  <g id="bullet-char-template-9679" transform="scale(0.00048828125,-0.00048828125)">
   <path d="M 813,0 C 632,0 489,54 383,161 276,268 223,411 223,592 223,773 276,916 383,1023 489,1130 632,1184 813,1184 992,1184 1136,1130 1245,1023 1353,916 1407,772 1407,592 1407,412 1353,268 1245,161 1136,54 992,0 813,0 Z"/>
  </g>
  <g id="bullet-char-template-8226" transform="scale(0.00048828125,-0.00048828125)">
   <path d="M 346,457 C 273,457 209,483 155,535 101,586 74,649 74,723 74,796 101,859 155,911 209,963 273,989 346,989 419,989 480,963 531,910 582,859 608,796 608,723 608,648 583,586 532,535 482,483 420,457 346,457 Z"/>
  </g>
  <g id="bullet-char-template-8211" transform="scale(0.00048828125,-0.00048828125)">
   <path d="M -4,459 L 1135,459 1135,606 -4,606 -4,459 Z"/>
  </g>
  <g id="bullet-char-template-61548" transform="scale(0.00048828125,-0.00048828125)">
   <path d="M 173,740 C 173,903 231,1043 346,1159 462,1274 601,1332 765,1332 928,1332 1067,1274 1183,1159 1299,1043 1357,903 1357,740 1357,577 1299,437 1183,322 1067,206 928,148 765,148 601,148 462,206 346,322 231,437 173,577 173,740 Z"/>
  </g>
 </defs>
 <defs class="TextEmbeddedBitmaps"/>
 <g>
  <g id="id2" class="Master_Slide">
   <g id="bg-id2" class="Background"/>
   <g id="bo-id2" class="BackgroundObjects"/>
  </g>
 </g>
 <g class="SlideGroup">
  <g>
   <g id="container-id1">
    <g id="id1" class="Slide" clip-path="url(#presentation_clip_path)">
     <g class="Page">
      <g class="Group">
       <g class="Graphic">
        <g id="id3">
         <rect class="BoundingBox" stroke="none" fill="none" x="6966" y="4261" width="1288" height="526"/>
         <defs>
          <clipPath id="clip_path_1" clipPathUnits="userSpaceOnUse">
           <path d="M 6966,4261 L 8253,4261 8253,4786 6966,4786 6966,4261 Z"/>
          </clipPath>
         </defs>
         <g clip-path="url(#clip_path_1)">
          <path fill="rgb(0,0,0)" stroke="none" d="M 7199,4288 C 7195,4281 7194,4279 7185,4279 7176,4279 7175,4281 7171,4288 L 6993,4644 C 6991,4649 6991,4650 6991,4651 6991,4655 6994,4655 7002,4655 L 7368,4655 C 7376,4655 7379,4655 7379,4651 7379,4650 7379,4649 7377,4644 L 7199,4288 7199,4288 Z M 7168,4331 L 7310,4615 7026,4615 7168,4331 7168,4331 Z"/>
          <path fill="rgb(0,0,0)" stroke="none" d="M 7581,4496 C 7584,4483 7596,4434 7633,4434 7636,4434 7648,4434 7659,4441 7644,4444 7634,4457 7634,4469 7634,4478 7640,4488 7654,4488 7666,4488 7682,4478 7682,4457 7682,4430 7651,4423 7633,4423 7603,4423 7584,4451 7578,4463 7565,4428 7537,4423 7521,4423 7466,4423 7436,4490 7436,4504 7436,4509 7442,4509 7443,4509 7447,4509 7449,4508 7450,4503 7468,4447 7502,4434 7520,4434 7530,4434 7549,4439 7549,4469 7549,4486 7540,4521 7520,4594 7512,4627 7493,4649 7470,4649 7467,4649 7455,4649 7444,4642 7457,4640 7469,4629 7469,4614 7469,4600 7457,4595 7449,4595 7433,4595 7420,4609 7420,4626 7420,4650 7446,4661 7470,4661 7504,4661 7523,4624 7525,4621 7531,4640 7550,4661 7582,4661 7636,4661 7666,4593 7666,4580 7666,4574 7661,4574 7660,4574 7655,4574 7654,4577 7653,4580 7636,4636 7600,4649 7583,4649 7562,4649 7554,4632 7554,4614 7554,4603 7557,4591 7563,4568 L 7581,4496 7581,4496 Z"/>
          <path fill="rgb(0,0,0)" stroke="none" d="M 7880,4781 C 7880,4779 7880,4778 7871,4769 7805,4703 7789,4604 7789,4524 7789,4432 7809,4341 7873,4275 7880,4269 7880,4268 7880,4266 7880,4263 7878,4261 7875,4261 7870,4261 7822,4297 7791,4363 7764,4421 7758,4479 7758,4524 7758,4564 7764,4628 7793,4687 7824,4752 7870,4786 7875,4786 7878,4786 7880,4784 7880,4781 L 7880,4781 Z"/>
          <path fill="rgb(0,0,0)" stroke="none" d="M 8019,4445 L 8069,4445 C 8079,4445 8084,4445 8084,4434 8084,4428 8079,4428 8070,4428 L 8023,4428 C 8042,4354 8045,4343 8045,4340 8045,4331 8039,4326 8030,4326 8028,4326 8013,4327 8009,4345 L 7988,4428 7939,4428 C 7928,4428 7923,4428 7923,4438 7923,4445 7927,4445 7937,4445 L 7984,4445 C 7946,4594 7944,4603 7944,4612 7944,4641 7964,4661 7992,4661 8046,4661 8076,4584 8076,4580 8076,4574 8072,4574 8070,4574 8065,4574 8064,4576 8062,4582 8039,4636 8011,4649 7993,4649 7982,4649 7977,4642 7977,4625 7977,4612 7978,4609 7980,4600 L 8019,4445 8019,4445 Z"/>
          <path fill="rgb(0,0,0)" stroke="none" d="M 8253,4524 C 8253,4483 8247,4419 8218,4360 8187,4295 8141,4261 8136,4261 8133,4261 8131,4263 8131,4266 8131,4268 8131,4269 8141,4278 8192,4330 8222,4414 8222,4524 8222,4613 8203,4706 8138,4772 8131,4778 8131,4779 8131,4781 8131,4784 8133,4786 8136,4786 8141,4786 8189,4750 8220,4684 8247,4626 8253,4568 8253,4524 L 8253,4524 Z"/>
         </g>
        </g>
       </g>
      </g>
      <g class="Group">
       <g class="Graphic">
        <g id="id4">
         <rect class="BoundingBox" stroke="none" fill="none" x="4064" y="5236" width="1125" height="567"/>
         <path fill="rgb(0,0,0)" stroke="none" d="M 4260,5492 C 4263,5478 4275,5430 4312,5430 4314,5430 4327,5430 4338,5436 4323,5439 4313,5452 4313,5465 4313,5473 4319,5483 4333,5483 4344,5483 4361,5474 4361,5453 4361,5425 4330,5418 4312,5418 4282,5418 4263,5446 4257,5458 4244,5423 4215,5418 4200,5418 4145,5418 4115,5486 4115,5499 4115,5504 4121,5504 4122,5504 4126,5504 4128,5503 4129,5498 4146,5443 4181,5430 4199,5430 4209,5430 4228,5434 4228,5465 4228,5481 4219,5516 4199,5590 4191,5623 4172,5645 4149,5645 4146,5645 4134,5645 4123,5638 4136,5635 4148,5624 4148,5610 4148,5595 4136,5591 4128,5591 4112,5591 4099,5605 4099,5622 4099,5646 4125,5656 4149,5656 4183,5656 4202,5620 4204,5616 4210,5636 4229,5656 4261,5656 4315,5656 4345,5588 4345,5575 4345,5570 4340,5570 4339,5570 4334,5570 4333,5572 4332,5576 4314,5632 4279,5645 4262,5645 4241,5645 4233,5628 4233,5610 4233,5598 4236,5587 4242,5564 L 4260,5492 4260,5492 Z"/>
         <path fill="rgb(0,0,0)" stroke="none" d="M 4508,5495 C 4508,5485 4508,5485 4497,5485 4474,5508 4440,5508 4425,5508 L 4425,5522 C 4434,5522 4458,5522 4478,5511 L 4478,5699 C 4478,5711 4478,5716 4442,5716 L 4428,5716 4428,5730 C 4434,5729 4480,5728 4493,5728 4505,5728 4551,5729 4559,5730 L 4559,5716 4545,5716 C 4508,5716 4508,5711 4508,5699 L 4508,5495 4508,5495 Z"/>
         <path fill="rgb(0,0,0)" stroke="none" d="M 4795,5777 C 4795,5775 4795,5774 4786,5765 4721,5699 4704,5600 4704,5519 4704,5427 4724,5336 4788,5270 4795,5264 4795,5263 4795,5261 4795,5257 4793,5256 4790,5256 4785,5256 4737,5292 4706,5358 4679,5416 4673,5475 4673,5519 4673,5560 4679,5624 4708,5683 4740,5748 4785,5782 4790,5782 4793,5782 4795,5781 4795,5777 L 4795,5777 Z"/>
         <path fill="rgb(0,0,0)" stroke="none" d="M 4934,5440 L 4984,5440 C 4994,5440 5000,5440 5000,5430 5000,5424 4994,5424 4985,5424 L 4939,5424 C 4957,5349 4960,5338 4960,5335 4960,5326 4954,5321 4945,5321 4943,5321 4929,5322 4924,5340 L 4903,5424 4854,5424 C 4843,5424 4838,5424 4838,5434 4838,5440 4842,5440 4853,5440 L 4899,5440 C 4861,5590 4859,5598 4859,5608 4859,5636 4879,5656 4907,5656 4961,5656 4991,5580 4991,5575 4991,5570 4987,5570 4985,5570 4980,5570 4980,5572 4977,5577 4954,5632 4926,5645 4909,5645 4897,5645 4892,5638 4892,5621 4892,5608 4893,5604 4895,5595 L 4934,5440 4934,5440 Z"/>
         <path fill="rgb(0,0,0)" stroke="none" d="M 5168,5519 C 5168,5478 5162,5414 5133,5355 5102,5290 5057,5256 5051,5256 5048,5256 5046,5258 5046,5261 5046,5263 5046,5264 5056,5273 5108,5325 5138,5409 5138,5519 5138,5609 5118,5702 5053,5768 5046,5774 5046,5775 5046,5777 5046,5780 5048,5782 5051,5782 5057,5782 5104,5746 5135,5680 5162,5622 5168,5563 5168,5519 L 5168,5519 Z"/>
        </g>
       </g>
      </g>
      <g class="Group">
       <g class="Graphic">
        <g id="id5">
         <rect class="BoundingBox" stroke="none" fill="none" x="10649" y="3643" width="1125" height="567"/>
         <path fill="rgb(0,0,0)" stroke="none" d="M 10845,3899 C 10848,3885 10860,3837 10897,3837 10899,3837 10912,3837 10923,3843 10908,3846 10898,3859 10898,3872 10898,3880 10904,3890 10918,3890 10929,3890 10946,3881 10946,3860 10946,3832 10915,3825 10897,3825 10867,3825 10848,3853 10842,3865 10829,3830 10800,3825 10785,3825 10730,3825 10700,3893 10700,3906 10700,3911 10706,3911 10707,3911 10711,3911 10713,3910 10714,3905 10731,3850 10766,3837 10784,3837 10794,3837 10813,3841 10813,3872 10813,3888 10804,3923 10784,3997 10776,4030 10757,4052 10734,4052 10731,4052 10719,4052 10708,4045 10721,4042 10733,4031 10733,4017 10733,4002 10721,3998 10713,3998 10697,3998 10684,4012 10684,4029 10684,4053 10710,4063 10734,4063 10768,4063 10787,4027 10789,4023 10795,4043 10814,4063 10846,4063 10900,4063 10930,3995 10930,3982 10930,3977 10925,3977 10924,3977 10919,3977 10918,3979 10917,3983 10899,4039 10864,4052 10847,4052 10826,4052 10818,4035 10818,4017 10818,4005 10821,3994 10827,3971 L 10845,3899 10845,3899 Z"/>
         <path fill="rgb(0,0,0)" stroke="none" d="M 11156,4069 L 11143,4069 C 11142,4078 11139,4099 11134,4103 11131,4105 11102,4105 11097,4105 L 11030,4105 C 11068,4071 11081,4061 11103,4043 11131,4022 11156,3999 11156,3964 11156,3919 11117,3892 11070,3892 11024,3892 10993,3924 10993,3958 10993,3977 11009,3978 11013,3978 11021,3978 11032,3972 11032,3959 11032,3952 11030,3939 11010,3939 11022,3913 11047,3905 11064,3905 11101,3905 11120,3934 11120,3964 11120,3996 11097,4021 11086,4034 L 10997,4122 C 10993,4125 10993,4126 10993,4137 L 11145,4137 11156,4069 11156,4069 Z"/>
         <path fill="rgb(0,0,0)" stroke="none" d="M 11380,4184 C 11380,4182 11380,4181 11371,4172 11306,4106 11289,4007 11289,3926 11289,3834 11309,3743 11373,3677 11380,3671 11380,3670 11380,3668 11380,3664 11378,3663 11375,3663 11370,3663 11322,3699 11291,3765 11264,3823 11258,3882 11258,3926 11258,3967 11264,4031 11293,4090 11325,4155 11370,4189 11375,4189 11378,4189 11380,4188 11380,4184 L 11380,4184 Z"/>
         <path fill="rgb(0,0,0)" stroke="none" d="M 11519,3847 L 11569,3847 C 11579,3847 11585,3847 11585,3837 11585,3831 11579,3831 11570,3831 L 11524,3831 C 11542,3756 11545,3745 11545,3742 11545,3733 11539,3728 11530,3728 11528,3728 11514,3729 11509,3747 L 11488,3831 11439,3831 C 11428,3831 11423,3831 11423,3841 11423,3847 11427,3847 11438,3847 L 11484,3847 C 11446,3997 11444,4005 11444,4015 11444,4043 11464,4063 11492,4063 11546,4063 11576,3987 11576,3982 11576,3977 11572,3977 11570,3977 11565,3977 11565,3979 11562,3984 11539,4039 11511,4052 11494,4052 11482,4052 11477,4045 11477,4028 11477,4015 11478,4011 11480,4002 L 11519,3847 11519,3847 Z"/>
         <path fill="rgb(0,0,0)" stroke="none" d="M 11753,3926 C 11753,3885 11747,3821 11718,3762 11687,3697 11642,3663 11636,3663 11633,3663 11631,3665 11631,3668 11631,3670 11631,3671 11641,3680 11693,3732 11723,3816 11723,3926 11723,4016 11703,4109 11638,4175 11631,4181 11631,4182 11631,4184 11631,4187 11633,4189 11636,4189 11642,4189 11689,4153 11720,4087 11747,4029 11753,3970 11753,3926 L 11753,3926 Z"/>
        </g>
       </g>
      </g>
      <g class="Group">
       <g class="Graphic">
        <g id="id6">
         <rect class="BoundingBox" stroke="none" fill="none" x="14837" y="1922" width="277" height="238"/>
         <defs>
          <clipPath id="clip_path_2" clipPathUnits="userSpaceOnUse">
           <path d="M 14837,1922 L 15113,1922 15113,2159 14837,2159 14837,1922 Z"/>
          </clipPath>
         </defs>
         <g clip-path="url(#clip_path_2)">
          <path fill="rgb(0,0,0)" stroke="none" d="M 15012,1995 C 15015,1982 15027,1934 15064,1934 15066,1934 15079,1934 15090,1940 15075,1943 15065,1956 15065,1969 15065,1977 15071,1987 15085,1987 15096,1987 15113,1977 15113,1957 15113,1929 15082,1922 15064,1922 15034,1922 15016,1950 15009,1962 14996,1927 14968,1922 14953,1922 14898,1922 14868,1989 14868,2003 14868,2008 14874,2008 14875,2008 14879,2008 14880,2007 14882,2002 14899,1947 14934,1934 14952,1934 14962,1934 14980,1938 14980,1969 14980,1985 14971,2020 14952,2093 14943,2126 14925,2147 14902,2147 14899,2147 14887,2147 14876,2141 14889,2138 14900,2127 14900,2112 14900,2098 14889,2094 14881,2094 14865,2094 14852,2108 14852,2124 14852,2149 14878,2159 14901,2159 14936,2159 14955,2122 14956,2119 14963,2139 14982,2159 15013,2159 15067,2159 15097,2092 15097,2078 15097,2073 15092,2073 15090,2073 15086,2073 15085,2075 15084,2079 15066,2135 15031,2147 15014,2147 14994,2147 14985,2131 14985,2113 14985,2101 14988,2090 14994,2067 L 15012,1995 15012,1995 Z"/>
         </g>
        </g>
       </g>
      </g>
      <g class="Group">
       <g class="Graphic">
        <g id="id7">
         <rect class="BoundingBox" stroke="none" fill="none" x="1759" y="5162" width="318" height="238"/>
         <defs>
          <clipPath id="clip_path_3" clipPathUnits="userSpaceOnUse">
           <path d="M 1759,5162 L 2076,5162 2076,5399 1759,5399 1759,5162 Z"/>
          </clipPath>
         </defs>
         <g clip-path="url(#clip_path_3)">
          <path fill="rgb(0,0,0)" stroke="none" d="M 2010,5270 C 2010,5188 1961,5162 1922,5162 1850,5162 1781,5237 1781,5311 1781,5359 1812,5399 1866,5399 1899,5399 1937,5387 1977,5355 1984,5383 2001,5399 2025,5399 2053,5399 2069,5370 2069,5362 2069,5358 2066,5357 2063,5357 2059,5357 2058,5358 2056,5362 2047,5387 2028,5387 2027,5387 2010,5387 2010,5347 2010,5334 2010,5323 2010,5322 2015,5316 2065,5254 2076,5193 2076,5193 2076,5192 2075,5188 2070,5188 2064,5188 2064,5189 2062,5199 2052,5232 2035,5271 2010,5302 L 2010,5270 2010,5270 Z M 1975,5341 C 1929,5382 1888,5387 1867,5387 1835,5387 1820,5364 1820,5330 1820,5305 1833,5248 1850,5222 1875,5183 1903,5174 1922,5174 1974,5174 1974,5242 1974,5283 1974,5302 1974,5333 1975,5341 L 1975,5341 Z"/>
         </g>
        </g>
       </g>
      </g>
      <g class="Group">
       <g class="com.sun.star.drawing.LineShape">
        <g id="id8">
         <rect class="BoundingBox" stroke="none" fill="none" x="3181" y="1839" width="967" height="3533"/>
         <path fill="none" stroke="rgb(0,0,0)" stroke-width="51" stroke-linejoin="round" d="M 3207,1865 L 3233,1962"/>
         <path fill="none" stroke="rgb(0,0,0)" stroke-width="51" stroke-linejoin="round" d="M 3258,2059 L 3284,2157"/>
         <path fill="none" stroke="rgb(0,0,0)" stroke-width="51" stroke-linejoin="round" d="M 3309,2254 L 3335,2351"/>
         <path fill="none" stroke="rgb(0,0,0)" stroke-width="51" stroke-linejoin="round" d="M 3360,2448 L 3386,2545"/>
         <path fill="none" stroke="rgb(0,0,0)" stroke-width="51" stroke-linejoin="round" d="M 3411,2642 L 3437,2740"/>
         <path fill="none" stroke="rgb(0,0,0)" stroke-width="51" stroke-linejoin="round" d="M 3462,2837 L 3488,2934"/>
         <path fill="none" stroke="rgb(0,0,0)" stroke-width="51" stroke-linejoin="round" d="M 3513,3031 L 3539,3128"/>
         <path fill="none" stroke="rgb(0,0,0)" stroke-width="51" stroke-linejoin="round" d="M 3564,3225 L 3590,3323"/>
         <path fill="none" stroke="rgb(0,0,0)" stroke-width="51" stroke-linejoin="round" d="M 3615,3420 L 3641,3517"/>
         <path fill="none" stroke="rgb(0,0,0)" stroke-width="51" stroke-linejoin="round" d="M 3666,3614 L 3692,3711"/>
         <path fill="none" stroke="rgb(0,0,0)" stroke-width="51" stroke-linejoin="round" d="M 3717,3808 L 3743,3906"/>
         <path fill="none" stroke="rgb(0,0,0)" stroke-width="51" stroke-linejoin="round" d="M 3768,4003 L 3794,4100"/>
         <path fill="none" stroke="rgb(0,0,0)" stroke-width="51" stroke-linejoin="round" d="M 3820,4197 L 3845,4294"/>
         <path fill="none" stroke="rgb(0,0,0)" stroke-width="51" stroke-linejoin="round" d="M 3871,4392 L 3896,4489"/>
         <path fill="none" stroke="rgb(0,0,0)" stroke-width="51" stroke-linejoin="round" d="M 3922,4586 L 3947,4683"/>
         <path fill="none" stroke="rgb(0,0,0)" stroke-width="51" stroke-linejoin="round" d="M 3973,4780 L 3998,4877"/>
         <path fill="none" stroke="rgb(0,0,0)" stroke-width="51" stroke-linejoin="round" d="M 4024,4975 L 4049,5072"/>
         <path fill="none" stroke="rgb(0,0,0)" stroke-width="51" stroke-linejoin="round" d="M 4075,5169 L 4100,5266"/>
        </g>
       </g>
       <g class="com.sun.star.drawing.LineShape">
        <g id="id9">
         <rect class="BoundingBox" stroke="none" fill="none" x="64" y="1420" width="15380" height="4092"/>
         <path fill="none" stroke="rgb(0,0,0)" stroke-width="51" stroke-linejoin="round" d="M 90,5485 L 15056,1551"/>
         <path fill="rgb(0,0,0)" stroke="none" d="M 15443,1449 L 15003,1420 15074,1690 15443,1449 Z"/>
        </g>
       </g>
       <g class="Group">
        <g class="com.sun.star.drawing.CustomShape">
         <g id="id10">
          <rect class="BoundingBox" stroke="none" fill="none" x="878" y="3353" width="2949" height="1500"/>
          <path fill="none" stroke="rgb(0,0,0)" stroke-width="51" stroke-linejoin="round" d="M 2449,4471 L 1098,4826 904,4089 3606,3379 3800,4116 2449,4471 Z"/>
         </g>
        </g>
        <g class="com.sun.star.drawing.CustomShape">
         <g id="id11">
          <rect class="BoundingBox" stroke="none" fill="none" x="878" y="3040" width="2142" height="1079"/>
          <path fill="none" stroke="rgb(0,0,0)" stroke-width="51" stroke-linejoin="round" d="M 904,4092 L 2993,3543 2309,3066 1265,3341 904,4092 Z"/>
         </g>
        </g>
        <g class="com.sun.star.drawing.CustomShape">
         <g id="id12">
          <rect class="BoundingBox" stroke="none" fill="none" x="1199" y="4429" width="690" height="690"/>
          <path fill="rgb(255,255,255)" stroke="none" d="M 1463,4466 C 1520,4451 1571,4451 1628,4467 1684,4482 1728,4508 1770,4549 1811,4591 1836,4636 1851,4692 1866,4749 1866,4801 1851,4857 1835,4914 1809,4958 1768,4999 1726,5040 1681,5066 1625,5081 1568,5096 1517,5095 1460,5080 1404,5065 1359,5039 1318,4997 1277,4955 1251,4911 1236,4854 1221,4798 1222,4746 1237,4690 1252,4633 1278,4589 1320,4547 1362,4506 1406,4481 1463,4466 L 1463,4466 Z"/>
          <path fill="none" stroke="rgb(0,0,0)" stroke-width="51" stroke-linejoin="round" d="M 1463,4466 C 1520,4451 1571,4451 1628,4467 1684,4482 1728,4508 1770,4549 1811,4591 1836,4636 1851,4692 1866,4749 1866,4801 1851,4857 1835,4914 1809,4958 1768,4999 1726,5040 1681,5066 1625,5081 1568,5096 1517,5095 1460,5080 1404,5065 1359,5039 1318,4997 1277,4955 1251,4911 1236,4854 1221,4798 1222,4746 1237,4690 1252,4633 1278,4589 1320,4547 1362,4506 1406,4481 1463,4466 Z"/>
         </g>
        </g>
        <g class="com.sun.star.drawing.CustomShape">
         <g id="id13">
          <rect class="BoundingBox" stroke="none" fill="none" x="3042" y="3945" width="690" height="690"/>
          <path fill="rgb(255,255,255)" stroke="none" d="M 3306,3982 C 3363,3967 3414,3967 3471,3983 3527,3998 3571,4024 3613,4065 3654,4107 3679,4152 3694,4208 3709,4265 3709,4317 3694,4373 3678,4430 3652,4474 3611,4515 3569,4556 3524,4582 3468,4597 3411,4612 3360,4611 3303,4596 3247,4581 3202,4555 3161,4513 3120,4471 3094,4427 3079,4370 3064,4314 3065,4262 3080,4206 3095,4149 3121,4105 3163,4063 3205,4022 3249,3997 3306,3982 L 3306,3982 Z"/>
          <path fill="none" stroke="rgb(0,0,0)" stroke-width="51" stroke-linejoin="round" d="M 3306,3982 C 3363,3967 3414,3967 3471,3983 3527,3998 3571,4024 3613,4065 3654,4107 3679,4152 3694,4208 3709,4265 3709,4317 3694,4373 3678,4430 3652,4474 3611,4515 3569,4556 3524,4582 3468,4597 3411,4612 3360,4611 3303,4596 3247,4581 3202,4555 3161,4513 3120,4471 3094,4427 3079,4370 3064,4314 3065,4262 3080,4206 3095,4149 3121,4105 3163,4063 3205,4022 3249,3997 3306,3982 Z"/>
         </g>
        </g>
       </g>
       <g class="Group">
        <g class="com.sun.star.drawing.CustomShape">
         <g id="id14">
          <rect class="BoundingBox" stroke="none" fill="none" x="10356" y="862" width="2949" height="1500"/>
          <path fill="none" stroke="rgb(0,0,0)" stroke-width="51" stroke-linejoin="round" d="M 11927,1980 L 10576,2335 10382,1598 13084,888 13278,1625 11927,1980 Z"/>
         </g>
        </g>
        <g class="com.sun.star.drawing.CustomShape">
         <g id="id15">
          <rect class="BoundingBox" stroke="none" fill="none" x="10357" y="549" width="2142" height="1079"/>
          <path fill="none" stroke="rgb(0,0,0)" stroke-width="51" stroke-linejoin="round" d="M 10383,1601 L 12472,1052 11788,575 10744,850 10383,1601 Z"/>
         </g>
        </g>
        <g class="com.sun.star.drawing.CustomShape">
         <g id="id16">
          <rect class="BoundingBox" stroke="none" fill="none" x="10677" y="1938" width="690" height="690"/>
          <path fill="rgb(255,255,255)" stroke="none" d="M 10941,1975 C 10998,1960 11049,1960 11106,1976 11162,1991 11206,2017 11248,2058 11289,2100 11314,2145 11329,2201 11344,2258 11344,2310 11329,2366 11313,2423 11287,2467 11246,2508 11204,2549 11159,2575 11103,2590 11046,2605 10995,2604 10938,2589 10882,2574 10837,2548 10796,2506 10755,2464 10729,2420 10714,2363 10699,2307 10700,2255 10715,2199 10730,2142 10756,2098 10798,2056 10840,2015 10884,1990 10941,1975 L 10941,1975 Z"/>
          <path fill="none" stroke="rgb(0,0,0)" stroke-width="51" stroke-linejoin="round" d="M 10941,1975 C 10998,1960 11049,1960 11106,1976 11162,1991 11206,2017 11248,2058 11289,2100 11314,2145 11329,2201 11344,2258 11344,2310 11329,2366 11313,2423 11287,2467 11246,2508 11204,2549 11159,2575 11103,2590 11046,2605 10995,2604 10938,2589 10882,2574 10837,2548 10796,2506 10755,2464 10729,2420 10714,2363 10699,2307 10700,2255 10715,2199 10730,2142 10756,2098 10798,2056 10840,2015 10884,1990 10941,1975 Z"/>
         </g>
        </g>
        <g class="com.sun.star.drawing.CustomShape">
         <g id="id17">
          <rect class="BoundingBox" stroke="none" fill="none" x="12519" y="1454" width="690" height="690"/>
          <path fill="rgb(255,255,255)" stroke="none" d="M 12783,1491 C 12840,1476 12891,1476 12948,1492 13004,1507 13048,1533 13090,1574 13131,1616 13156,1661 13171,1717 13186,1774 13186,1826 13171,1882 13155,1939 13129,1983 13088,2024 13046,2065 13001,2091 12945,2106 12888,2121 12837,2120 12780,2105 12724,2090 12679,2064 12638,2022 12597,1980 12571,1936 12556,1879 12541,1823 12542,1771 12557,1715 12572,1658 12598,1614 12640,1572 12682,1531 12726,1506 12783,1491 L 12783,1491 Z"/>
          <path fill="none" stroke="rgb(0,0,0)" stroke-width="51" stroke-linejoin="round" d="M 12783,1491 C 12840,1476 12891,1476 12948,1492 13004,1507 13048,1533 13090,1574 13131,1616 13156,1661 13171,1717 13186,1774 13186,1826 13171,1882 13155,1939 13129,1983 13088,2024 13046,2065 13001,2091 12945,2106 12888,2121 12837,2120 12780,2105 12724,2090 12679,2064 12638,2022 12597,1980 12571,1936 12556,1879 12541,1823 12542,1771 12557,1715 12572,1658 12598,1614 12640,1572 12682,1531 12726,1506 12783,1491 Z"/>
         </g>
        </g>
       </g>
       <g class="com.sun.star.drawing.LineShape">
        <g id="id18">
         <rect class="BoundingBox" stroke="none" fill="none" x="9957" y="58" width="967" height="3533"/>
         <path fill="none" stroke="rgb(0,0,0)" stroke-width="51" stroke-linejoin="round" d="M 9983,84 L 10009,181"/>
         <path fill="none" stroke="rgb(0,0,0)" stroke-width="51" stroke-linejoin="round" d="M 10034,278 L 10060,376"/>
         <path fill="none" stroke="rgb(0,0,0)" stroke-width="51" stroke-linejoin="round" d="M 10085,473 L 10111,570"/>
         <path fill="none" stroke="rgb(0,0,0)" stroke-width="51" stroke-linejoin="round" d="M 10136,667 L 10162,764"/>
         <path fill="none" stroke="rgb(0,0,0)" stroke-width="51" stroke-linejoin="round" d="M 10187,861 L 10213,959"/>
         <path fill="none" stroke="rgb(0,0,0)" stroke-width="51" stroke-linejoin="round" d="M 10238,1056 L 10264,1153"/>
         <path fill="none" stroke="rgb(0,0,0)" stroke-width="51" stroke-linejoin="round" d="M 10289,1250 L 10315,1347"/>
         <path fill="none" stroke="rgb(0,0,0)" stroke-width="51" stroke-linejoin="round" d="M 10340,1444 L 10366,1542"/>
         <path fill="none" stroke="rgb(0,0,0)" stroke-width="51" stroke-linejoin="round" d="M 10391,1639 L 10417,1736"/>
         <path fill="none" stroke="rgb(0,0,0)" stroke-width="51" stroke-linejoin="round" d="M 10442,1833 L 10468,1930"/>
         <path fill="none" stroke="rgb(0,0,0)" stroke-width="51" stroke-linejoin="round" d="M 10493,2027 L 10519,2125"/>
         <path fill="none" stroke="rgb(0,0,0)" stroke-width="51" stroke-linejoin="round" d="M 10544,2222 L 10570,2319"/>
         <path fill="none" stroke="rgb(0,0,0)" stroke-width="51" stroke-linejoin="round" d="M 10596,2416 L 10621,2513"/>
         <path fill="none" stroke="rgb(0,0,0)" stroke-width="51" stroke-linejoin="round" d="M 10647,2611 L 10672,2708"/>
         <path fill="none" stroke="rgb(0,0,0)" stroke-width="51" stroke-linejoin="round" d="M 10698,2805 L 10723,2902"/>
         <path fill="none" stroke="rgb(0,0,0)" stroke-width="51" stroke-linejoin="round" d="M 10749,2999 L 10774,3096"/>
         <path fill="none" stroke="rgb(0,0,0)" stroke-width="51" stroke-linejoin="round" d="M 10800,3194 L 10825,3291"/>
         <path fill="none" stroke="rgb(0,0,0)" stroke-width="51" stroke-linejoin="round" d="M 10851,3388 L 10876,3485"/>
        </g>
       </g>
       <g class="com.sun.star.drawing.LineShape">
        <g id="id19">
         <rect class="BoundingBox" stroke="none" fill="none" x="4001" y="3171" width="6782" height="1832"/>
         <path fill="none" stroke="rgb(0,0,0)" stroke-width="51" stroke-linejoin="round" d="M 4027,4976 L 10395,3302"/>
         <path fill="rgb(0,0,0)" stroke="none" d="M 10782,3200 L 10342,3171 10413,3441 10782,3200 Z"/>
        </g>
       </g>
       <g class="com.sun.star.drawing.LineShape">
        <g id="id20">
         <rect class="BoundingBox" stroke="none" fill="none" x="64" y="5448" width="3595" height="65"/>
         <path fill="none" stroke="rgb(0,0,0)" stroke-width="51" stroke-linejoin="round" d="M 90,5486 L 190,5486"/>
         <path fill="none" stroke="rgb(0,0,0)" stroke-width="51" stroke-linejoin="round" d="M 291,5485 L 391,5485"/>
         <path fill="none" stroke="rgb(0,0,0)" stroke-width="51" stroke-linejoin="round" d="M 492,5485 L 592,5484"/>
         <path fill="none" stroke="rgb(0,0,0)" stroke-width="51" stroke-linejoin="round" d="M 693,5484 L 793,5484"/>
         <path fill="none" stroke="rgb(0,0,0)" stroke-width="51" stroke-linejoin="round" d="M 894,5483 L 994,5483"/>
         <path fill="none" stroke="rgb(0,0,0)" stroke-width="51" stroke-linejoin="round" d="M 1095,5483 L 1195,5482"/>
         <path fill="none" stroke="rgb(0,0,0)" stroke-width="51" stroke-linejoin="round" d="M 1296,5482 L 1396,5482"/>
         <path fill="none" stroke="rgb(0,0,0)" stroke-width="51" stroke-linejoin="round" d="M 1497,5481 L 1597,5481"/>
         <path fill="none" stroke="rgb(0,0,0)" stroke-width="51" stroke-linejoin="round" d="M 1698,5481 L 1798,5480"/>
         <path fill="none" stroke="rgb(0,0,0)" stroke-width="51" stroke-linejoin="round" d="M 1898,5480 L 1999,5480"/>
         <path fill="none" stroke="rgb(0,0,0)" stroke-width="51" stroke-linejoin="round" d="M 2099,5479 L 2200,5479"/>
         <path fill="none" stroke="rgb(0,0,0)" stroke-width="51" stroke-linejoin="round" d="M 2300,5479 L 2401,5478"/>
         <path fill="none" stroke="rgb(0,0,0)" stroke-width="51" stroke-linejoin="round" d="M 2501,5478 L 2602,5477"/>
         <path fill="none" stroke="rgb(0,0,0)" stroke-width="51" stroke-linejoin="round" d="M 2702,5477 L 2803,5477"/>
         <path fill="none" stroke="rgb(0,0,0)" stroke-width="51" stroke-linejoin="round" d="M 2903,5476 L 3004,5476"/>
         <path fill="none" stroke="rgb(0,0,0)" stroke-width="51" stroke-linejoin="round" d="M 3104,5476 L 3205,5475"/>
         <path fill="none" stroke="rgb(0,0,0)" stroke-width="51" stroke-linejoin="round" d="M 3305,5475 L 3405,5475"/>
         <path fill="none" stroke="rgb(0,0,0)" stroke-width="51" stroke-linejoin="round" d="M 3506,5474 L 3606,5474"/>
        </g>
       </g>
       <g class="com.sun.star.drawing.EllipseShape">
        <g id="id21">
         <rect class="BoundingBox" stroke="none" fill="none" x="2279" y="4904" width="151" height="582"/>
         <path fill="none" stroke="rgb(0,0,0)" stroke-width="51" stroke-linejoin="round" d="M 2352,5118 C 2369,5229 2377,5277 2376,5459"/>
         <path fill="rgb(0,0,0)" stroke="none" d="M 2308,4905 L 2279,5143 2428,5113 2308,4905 Z"/>
        </g>
       </g>
      </g>
      <g class="Group">
       <g class="Group">
        <g class="Graphic">
         <g id="id22">
          <rect class="BoundingBox" stroke="none" fill="none" x="4842" y="950" width="4408" height="519"/>
          <path fill="rgb(0,0,0)" stroke="none" d="M 4963,1148 C 4963,1132 4950,1120 4935,1120 4920,1120 4907,1132 4907,1148 4907,1163 4920,1176 4935,1176 4950,1176 4963,1163 4963,1148 L 4963,1148 Z M 4963,1319 C 4963,1303 4950,1291 4935,1291 4920,1291 4907,1303 4907,1319 4907,1334 4920,1347 4935,1347 4950,1347 4963,1334 4963,1319 L 4963,1319 Z"/>
          <path fill="rgb(0,0,0)" stroke="none" d="M 5201,1316 C 5199,1323 5196,1336 5196,1338 5196,1348 5204,1352 5212,1352 5218,1352 5227,1348 5231,1338 5232,1337 5238,1312 5241,1299 L 5253,1251 C 5256,1240 5259,1228 5262,1216 5264,1207 5268,1192 5269,1190 5276,1173 5304,1126 5354,1126 5378,1126 5383,1145 5383,1162 5383,1176 5379,1190 5375,1206 L 5360,1267 5350,1307 C 5348,1318 5343,1336 5343,1338 5343,1348 5350,1352 5358,1352 5374,1352 5378,1339 5382,1322 5389,1293 5409,1216 5413,1196 5415,1189 5443,1126 5500,1126 5523,1126 5529,1143 5529,1162 5529,1192 5507,1252 5496,1280 5491,1293 5489,1299 5489,1309 5489,1334 5508,1352 5533,1352 5582,1352 5602,1276 5602,1271 5602,1266 5597,1266 5595,1266 5590,1266 5590,1268 5587,1276 5579,1303 5563,1341 5534,1341 5525,1341 5521,1336 5521,1323 5521,1310 5526,1298 5530,1286 5540,1259 5563,1200 5563,1170 5563,1136 5542,1114 5502,1114 5462,1114 5436,1137 5416,1165 5416,1158 5414,1140 5399,1128 5386,1117 5369,1114 5356,1114 5309,1114 5283,1148 5274,1160 5271,1130 5249,1114 5225,1114 5201,1114 5191,1135 5186,1144 5177,1162 5170,1193 5170,1195 5170,1200 5175,1200 5176,1200 5182,1200 5182,1200 5185,1188 5194,1151 5205,1126 5224,1126 5232,1126 5240,1130 5240,1150 5240,1161 5238,1167 5232,1194 L 5201,1316 5201,1316 Z"/>
          <path fill="rgb(0,0,0)" stroke="none" d="M 5724,1346 C 5724,1311 5711,1291 5691,1291 5673,1291 5663,1304 5663,1319 5663,1333 5673,1347 5691,1347 5697,1347 5704,1345 5709,1340 5711,1339 5711,1338 5712,1338 5712,1338 5713,1339 5713,1346 5713,1385 5694,1417 5677,1434 5671,1440 5671,1441 5671,1442 5671,1446 5674,1448 5676,1448 5682,1448 5724,1408 5724,1346 L 5724,1346 Z"/>
          <path fill="rgb(0,0,0)" stroke="none" d="M 6060,1147 C 6052,1147 6045,1147 6037,1154 6029,1162 6028,1171 6028,1175 6028,1187 6037,1193 6047,1193 6063,1193 6077,1180 6077,1159 6077,1133 6052,1114 6015,1114 5943,1114 5873,1189 5873,1263 5873,1311 5904,1352 5959,1352 6034,1352 6078,1297 6078,1290 6078,1287 6075,1283 6072,1283 6069,1283 6068,1285 6065,1289 6024,1341 5966,1341 5960,1341 5927,1341 5912,1315 5912,1283 5912,1262 5923,1211 5941,1178 5957,1148 5986,1126 6015,1126 6033,1126 6053,1132 6060,1147 L 6060,1147 Z"/>
          <path fill="rgb(0,0,0)" stroke="none" d="M 6338,1303 C 6345,1284 6358,1280 6369,1280 L 6369,1267 C 6359,1268 6353,1268 6343,1268 6331,1268 6317,1268 6306,1267 L 6306,1280 C 6319,1280 6326,1287 6326,1296 6326,1299 6326,1300 6323,1305 L 6288,1397 6248,1296 C 6247,1294 6246,1291 6246,1289 6246,1281 6255,1280 6266,1280 L 6266,1267 C 6252,1268 6239,1268 6226,1268 6215,1268 6204,1268 6193,1267 L 6193,1280 C 6202,1280 6210,1280 6214,1283 6220,1287 6223,1299 6223,1299 6223,1300 6222,1302 6221,1304 L 6187,1391 6150,1296 C 6147,1291 6147,1291 6147,1289 6147,1280 6161,1280 6167,1280 L 6167,1267 C 6167,1267 6140,1268 6126,1268 6114,1268 6102,1268 6091,1267 L 6091,1280 C 6105,1280 6113,1280 6117,1291 L 6169,1421 C 6171,1426 6172,1429 6179,1429 6185,1429 6186,1426 6188,1422 L 6230,1316 6271,1420 C 6273,1426 6275,1429 6281,1429 6288,1429 6289,1427 6291,1421 L 6338,1303 6338,1303 Z"/>
          <path fill="rgb(0,0,0)" stroke="none" d="M 6520,1346 C 6520,1311 6507,1291 6486,1291 6469,1291 6458,1304 6458,1319 6458,1333 6469,1347 6486,1347 6492,1347 6499,1345 6504,1340 6506,1339 6507,1338 6507,1338 6508,1338 6508,1339 6508,1346 6508,1385 6490,1417 6472,1434 6466,1440 6466,1441 6466,1442 6466,1446 6469,1448 6472,1448 6478,1448 6520,1408 6520,1346 L 6520,1346 Z"/>
          <path fill="rgb(0,0,0)" stroke="none" d="M 6741,1286 C 6720,1321 6700,1329 6676,1330 6670,1331 6665,1331 6665,1341 6665,1344 6668,1347 6672,1347 6686,1347 6703,1345 6718,1345 6735,1345 6753,1347 6770,1347 6773,1347 6780,1347 6780,1337 6780,1331 6776,1330 6772,1330 6760,1329 6747,1325 6747,1312 6747,1306 6750,1300 6754,1292 L 6795,1225 6927,1225 C 6928,1236 6935,1308 6935,1313 6935,1329 6908,1330 6897,1330 6890,1330 6885,1330 6885,1341 6885,1347 6891,1347 6892,1347 6914,1347 6936,1345 6958,1345 6971,1345 7004,1347 7018,1347 7021,1347 7027,1347 7027,1336 7027,1330 7022,1330 7015,1330 6982,1330 6982,1327 6981,1311 L 6948,982 C 6947,972 6947,970 6938,970 6930,970 6928,973 6925,979 L 6741,1286 6741,1286 Z M 6805,1209 L 6908,1035 6925,1209 6805,1209 6805,1209 Z"/>
          <path fill="rgb(0,0,0)" stroke="none" d="M 7149,1346 C 7149,1311 7136,1291 7116,1291 7098,1291 7088,1304 7088,1319 7088,1333 7098,1347 7116,1347 7122,1347 7129,1345 7134,1340 7136,1339 7136,1338 7137,1338 7137,1338 7138,1339 7138,1346 7138,1385 7119,1417 7102,1434 7096,1440 7096,1441 7096,1442 7096,1446 7099,1448 7101,1448 7107,1448 7149,1408 7149,1346 L 7149,1346 Z"/>
          <path fill="rgb(0,0,0)" stroke="none" d="M 7549,987 C 7549,987 7549,981 7542,981 7534,981 7484,986 7475,987 7471,988 7467,990 7467,997 7467,1003 7472,1003 7480,1003 7505,1003 7506,1007 7506,1012 L 7505,1023 7473,1148 C 7464,1128 7448,1114 7425,1114 7363,1114 7298,1191 7298,1268 7298,1318 7327,1352 7368,1352 7378,1352 7405,1350 7436,1313 7440,1335 7459,1352 7484,1352 7503,1352 7515,1340 7523,1323 7532,1305 7539,1272 7539,1271 7539,1266 7534,1266 7533,1266 7527,1266 7527,1268 7525,1276 7516,1310 7507,1341 7485,1341 7471,1341 7469,1327 7469,1317 7469,1304 7471,1300 7473,1291 L 7549,987 7549,987 Z M 7439,1284 C 7436,1293 7436,1295 7428,1303 7405,1332 7384,1341 7369,1341 7342,1341 7335,1312 7335,1291 7335,1265 7352,1200 7364,1176 7380,1145 7404,1126 7425,1126 7459,1126 7467,1169 7467,1172 7467,1175 7466,1178 7465,1181 L 7439,1284 7439,1284 Z"/>
          <path fill="rgb(0,0,0)" stroke="none" d="M 7647,1179 C 7643,1174 7643,1174 7635,1174 L 7572,1174 7572,1187 7583,1187 C 7598,1187 7608,1189 7610,1189 L 7610,1386 C 7610,1396 7610,1412 7572,1412 L 7572,1426 C 7587,1424 7601,1424 7617,1424 7632,1424 7646,1424 7662,1426 L 7662,1412 C 7624,1412 7624,1396 7624,1386 L 7624,1200 7787,1420 C 7791,1425 7791,1426 7796,1426 7803,1426 7803,1422 7803,1415 L 7803,1214 C 7803,1204 7803,1187 7841,1187 L 7841,1174 C 7826,1175 7811,1175 7796,1175 7781,1175 7766,1175 7751,1174 L 7751,1187 C 7789,1187 7789,1204 7789,1214 L 7789,1370 7647,1179 7647,1179 Z"/>
          <path fill="rgb(0,0,0)" stroke="none" d="M 7995,1346 C 7995,1311 7982,1291 7962,1291 7944,1291 7934,1304 7934,1319 7934,1333 7944,1347 7962,1347 7968,1347 7975,1345 7980,1340 7982,1339 7982,1338 7983,1338 7983,1338 7984,1339 7984,1346 7984,1385 7965,1417 7948,1434 7942,1440 7942,1441 7942,1442 7942,1446 7945,1448 7947,1448 7953,1448 7995,1408 7995,1346 L 7995,1346 Z"/>
          <path fill="rgb(0,0,0)" stroke="none" d="M 8282,1180 L 8372,1180 C 8447,1180 8520,1126 8520,1067 8520,1026 8485,987 8416,987 L 8245,987 C 8235,987 8230,987 8230,997 8230,1003 8234,1003 8245,1003 8252,1003 8261,1004 8268,1005 8276,1006 8279,1007 8279,1013 8279,1015 8279,1017 8277,1023 L 8206,1306 C 8201,1326 8200,1330 8158,1330 8149,1330 8144,1330 8144,1340 8144,1347 8150,1347 8152,1347 8166,1347 8204,1345 8219,1345 8230,1345 8241,1346 8252,1346 8264,1346 8275,1347 8287,1347 8290,1347 8297,1347 8297,1336 8297,1330 8292,1330 8282,1330 8263,1330 8248,1330 8248,1321 8248,1318 8249,1315 8250,1312 L 8282,1180 8282,1180 Z M 8320,1023 C 8325,1005 8326,1003 8349,1003 L 8399,1003 C 8443,1003 8471,1018 8471,1054 8471,1075 8460,1120 8440,1139 8414,1162 8382,1167 8359,1167 L 8284,1167 8320,1023 8320,1023 Z"/>
          <path fill="rgb(0,0,0)" stroke="none" d="M 8764,1314 C 8764,1282 8748,1263 8709,1263 8680,1263 8660,1279 8650,1297 8643,1271 8623,1263 8596,1263 8565,1263 8546,1280 8536,1299 L 8535,1299 8535,1263 8481,1267 8481,1280 C 8506,1280 8509,1283 8509,1301 L 8509,1396 C 8509,1412 8505,1412 8481,1412 L 8481,1426 C 8482,1426 8507,1424 8523,1424 8537,1424 8562,1425 8565,1426 L 8565,1412 C 8541,1412 8538,1412 8538,1396 L 8538,1330 C 8538,1291 8568,1273 8593,1273 8619,1273 8622,1294 8622,1312 L 8622,1396 C 8622,1412 8618,1412 8594,1412 L 8594,1426 C 8595,1426 8621,1424 8636,1424 8650,1424 8675,1425 8679,1426 L 8679,1412 C 8655,1412 8651,1412 8651,1396 L 8651,1330 C 8651,1291 8682,1273 8706,1273 8732,1273 8735,1294 8735,1312 L 8735,1396 C 8735,1412 8731,1412 8707,1412 L 8707,1426 C 8708,1426 8734,1424 8750,1424 8763,1424 8789,1425 8792,1426 L 8792,1412 C 8768,1412 8764,1412 8764,1396 L 8764,1314 8764,1314 Z"/>
          <path fill="rgb(0,0,0)" stroke="none" d="M 8972,1327 C 8972,1307 8972,1293 8955,1280 8940,1267 8922,1261 8900,1261 8865,1261 8840,1275 8840,1297 8840,1309 8849,1315 8858,1315 8868,1315 8876,1308 8876,1298 8876,1291 8873,1284 8863,1281 8876,1272 8897,1272 8900,1272 8920,1272 8943,1285 8943,1316 L 8943,1328 C 8922,1328 8898,1329 8871,1339 8838,1352 8828,1372 8828,1388 8828,1420 8866,1429 8892,1429 8922,1429 8939,1413 8947,1398 8948,1413 8958,1427 8975,1427 8976,1427 9012,1427 9012,1392 L 9012,1372 8999,1372 8999,1392 C 8999,1396 8999,1413 8985,1413 8972,1413 8972,1396 8972,1391 L 8972,1327 8972,1327 Z M 8943,1374 C 8943,1409 8912,1419 8895,1419 8876,1419 8859,1406 8859,1388 8859,1368 8876,1340 8943,1337 L 8943,1374 8943,1374 Z"/>
          <path fill="rgb(0,0,0)" stroke="none" d="M 9142,1343 C 9142,1343 9140,1340 9140,1339 9140,1338 9164,1312 9167,1309 9180,1294 9193,1280 9222,1280 L 9222,1267 C 9212,1268 9201,1268 9191,1268 9180,1268 9166,1268 9155,1267 L 9155,1280 C 9161,1281 9162,1285 9162,1289 9162,1289 9162,1295 9156,1301 L 9131,1330 9100,1295 C 9096,1291 9096,1289 9096,1288 9096,1282 9101,1280 9106,1280 L 9106,1267 C 9092,1268 9078,1268 9065,1268 9054,1268 9040,1268 9029,1267 L 9029,1280 C 9046,1280 9055,1280 9065,1291 L 9111,1344 C 9111,1345 9114,1347 9114,1348 9114,1349 9086,1379 9083,1383 9069,1398 9056,1412 9027,1412 L 9027,1426 C 9038,1425 9046,1424 9058,1424 9069,1424 9083,1424 9094,1426 L 9094,1412 C 9090,1412 9087,1409 9087,1404 9087,1397 9091,1392 9097,1386 L 9123,1357 9155,1394 C 9162,1402 9162,1402 9162,1405 9162,1412 9154,1412 9152,1412 L 9152,1426 C 9155,1425 9182,1424 9194,1424 9206,1424 9217,1424 9229,1426 L 9229,1412 C 9204,1412 9201,1410 9193,1401 L 9142,1343 9142,1343 Z"/>
         </g>
        </g>
       </g>
       <g class="Group">
        <g class="Group">
         <g class="Graphic">
          <g id="id23">
           <rect class="BoundingBox" stroke="none" fill="none" x="4400" y="1007" width="220" height="351"/>
           <defs>
            <clipPath id="clip_path_4" clipPathUnits="userSpaceOnUse">
             <path d="M 4400,1007 L 4619,1007 4619,1357 4400,1357 4400,1007 Z"/>
            </clipPath>
           </defs>
           <g clip-path="url(#clip_path_4)">
            <path fill="rgb(0,0,0)" stroke="none" d="M 4554,1021 C 4554,1008 4554,1007 4542,1007 4509,1041 4463,1041 4447,1041 L 4447,1057 C 4457,1057 4488,1057 4515,1043 L 4515,1315 C 4515,1334 4513,1341 4466,1341 L 4450,1341 4450,1357 C 4468,1355 4513,1355 4534,1355 4555,1355 4601,1355 4619,1357 L 4619,1341 4602,1341 C 4555,1341 4554,1335 4554,1315 L 4554,1021 4554,1021 Z"/>
           </g>
          </g>
         </g>
        </g>
        <g class="com.sun.star.drawing.CustomShape">
         <g id="id24">
          <rect class="BoundingBox" stroke="none" fill="none" x="4264" y="928" width="535" height="535"/>
          <path fill="none" stroke="rgb(0,0,0)" stroke-width="25" stroke-linejoin="round" d="M 4531,941 C 4578,941 4618,951 4658,975 4699,998 4728,1027 4751,1068 4775,1108 4786,1148 4786,1195 4786,1242 4775,1282 4751,1322 4728,1363 4699,1392 4658,1415 4618,1439 4578,1450 4531,1450 4484,1450 4444,1439 4404,1415 4363,1392 4334,1363 4311,1322 4287,1282 4277,1242 4277,1195 4277,1148 4287,1108 4311,1068 4334,1027 4363,998 4404,975 4444,951 4484,941 4531,941 Z"/>
         </g>
        </g>
       </g>
      </g>
      <g class="Group">
       <g class="Group">
        <g class="Graphic">
         <g id="id25">
          <rect class="BoundingBox" stroke="none" fill="none" x="13273" y="260" width="237" height="351"/>
          <defs>
           <clipPath id="clip_path_5" clipPathUnits="userSpaceOnUse">
            <path d="M 13273,260 L 13509,260 13509,610 13273,610 13273,260 Z"/>
           </clipPath>
          </defs>
          <g clip-path="url(#clip_path_5)">
           <path fill="rgb(0,0,0)" stroke="none" d="M 13340,570 L 13395,515 C 13477,443 13509,415 13509,362 13509,302 13462,260 13398,260 13338,260 13299,308 13299,355 13299,385 13326,385 13327,385 13336,385 13354,378 13354,357 13354,343 13345,329 13327,329 13322,329 13321,329 13320,330 13332,296 13360,276 13391,276 13439,276 13461,319 13461,362 13461,404 13435,446 13406,478 L 13305,591 C 13299,596 13299,597 13299,610 L 13494,610 13509,519 13496,519 C 13493,534 13490,557 13484,565 13481,570 13446,570 13434,570 L 13340,570 13340,570 Z"/>
          </g>
         </g>
        </g>
       </g>
       <g class="com.sun.star.drawing.CustomShape">
        <g id="id26">
         <rect class="BoundingBox" stroke="none" fill="none" x="13137" y="180" width="535" height="536"/>
         <path fill="none" stroke="rgb(0,0,0)" stroke-width="25" stroke-linejoin="round" d="M 13404,193 C 13451,193 13491,204 13531,228 13572,251 13601,280 13624,321 13648,361 13659,401 13659,448 13659,495 13648,535 13624,575 13601,616 13572,645 13531,668 13491,692 13451,703 13404,703 13357,703 13317,692 13277,668 13236,645 13207,616 13184,575 13160,535 13150,495 13150,448 13150,401 13160,361 13184,321 13207,280 13236,251 13277,228 13317,204 13357,193 13404,193 Z"/>
        </g>
       </g>
      </g>
      <g class="Group">
       <g class="Graphic">
        <g id="id27">
         <rect class="BoundingBox" stroke="none" fill="none" x="5142" y="2409" width="301" height="346"/>
         <defs>
          <clipPath id="clip_path_6" clipPathUnits="userSpaceOnUse">
           <path d="M 5142,2409 L 5442,2409 5442,2754 5142,2754 5142,2409 Z"/>
          </clipPath>
         </defs>
         <g clip-path="url(#clip_path_6)">
          <path fill="rgb(0,0,0)" stroke="none" d="M 5263,2457 C 5266,2446 5271,2426 5271,2423 5271,2414 5265,2409 5256,2409 5254,2409 5240,2410 5235,2428 L 5159,2731 C 5158,2738 5158,2739 5158,2740 5158,2748 5164,2754 5172,2754 5183,2754 5190,2745 5191,2743 5193,2738 5200,2711 5220,2630 5236,2644 5260,2647 5270,2647 5307,2647 5328,2623 5340,2608 5345,2632 5364,2647 5387,2647 5406,2647 5418,2634 5426,2618 5435,2599 5442,2567 5442,2566 5442,2561 5437,2561 5436,2561 5430,2561 5430,2563 5428,2570 5419,2604 5410,2635 5389,2635 5374,2635 5373,2621 5373,2611 5373,2599 5379,2575 5383,2556 L 5398,2500 C 5400,2492 5405,2472 5407,2464 5409,2452 5415,2432 5415,2429 5415,2419 5407,2415 5400,2415 5397,2415 5383,2415 5379,2433 L 5354,2531 C 5348,2557 5342,2579 5341,2585 5340,2587 5315,2635 5273,2635 5246,2635 5234,2618 5234,2589 5234,2574 5237,2559 5241,2545 L 5263,2457 5263,2457 Z"/>
         </g>
        </g>
       </g>
      </g>
      <g class="com.sun.star.drawing.LineShape">
       <g id="id28">
        <rect class="BoundingBox" stroke="none" fill="none" x="1663" y="2741" width="3666" height="2360"/>
        <path fill="none" stroke="rgb(0,0,0)" stroke-width="25" stroke-linejoin="round" d="M 1676,5087 L 5315,2754"/>
       </g>
      </g>
      <g class="com.sun.star.drawing.LineShape">
       <g id="id29">
        <rect class="BoundingBox" stroke="none" fill="none" x="3516" y="2741" width="1813" height="1855"/>
        <path fill="none" stroke="rgb(0,0,0)" stroke-width="25" stroke-linejoin="round" d="M 3529,4582 L 5315,2754"/>
       </g>
      </g>
      <g class="com.sun.star.drawing.LineShape">
       <g id="id30">
        <rect class="BoundingBox" stroke="none" fill="none" x="2345" y="1403" width="2062" height="2897"/>
        <path fill="none" stroke="rgb(0,0,0)" stroke-width="25" stroke-linejoin="round" d="M 4393,1416 L 2516,4103"/>
        <path fill="rgb(0,0,0)" stroke="none" d="M 2541,4104 L 2554,4121 2565,4141 2572,4164 2574,4188 2570,4211 2563,4231 2553,4250 2539,4265 2522,4280 2502,4291 2480,4297 2456,4298 2433,4295 2412,4289 2394,4278 2378,4265 2364,4247 2354,4227 2347,4204 2345,4181 2348,4158 2356,4137 2366,4119 2380,4103 2396,4089 2417,4078 2440,4071 2463,4070 2485,4073 2506,4080 2525,4090 2541,4104 Z"/>
       </g>
      </g>
      <g class="com.sun.star.drawing.LineShape">
       <g id="id31">
        <rect class="BoundingBox" stroke="none" fill="none" x="11642" y="582" width="1561" height="1203"/>
        <path fill="none" stroke="rgb(0,0,0)" stroke-width="25" stroke-linejoin="round" d="M 13189,595 L 11836,1610"/>
        <path fill="rgb(0,0,0)" stroke="none" d="M 11859,1619 L 11866,1639 11870,1662 11870,1686 11864,1708 11853,1729 11840,1746 11825,1761 11807,1771 11786,1780 11764,1784 11740,1783 11717,1777 11697,1766 11679,1754 11665,1738 11654,1720 11647,1699 11643,1677 11643,1653 11649,1631 11659,1610 11673,1592 11688,1578 11706,1567 11726,1560 11749,1555 11773,1556 11796,1562 11816,1572 11834,1585 11848,1600 11859,1619 Z"/>
       </g>
      </g>
      <g class="Group">
       <g class="com.sun.star.drawing.LineShape">
        <g id="id32">
         <rect class="BoundingBox" stroke="none" fill="none" x="222" y="823" width="281" height="1297"/>
         <path fill="none" stroke="rgb(0,0,0)" stroke-width="51" stroke-linejoin="round" d="M 362,849 L 362,1719"/>
         <path fill="rgb(0,0,0)" stroke="none" d="M 362,2119 L 502,1701 223,1701 362,2119 Z"/>
        </g>
       </g>
       <g class="Group">
        <g class="Graphic">
         <g id="id33">
          <rect class="BoundingBox" stroke="none" fill="none" x="502" y="1008" width="496" height="604"/>
          <defs>
           <clipPath id="clip_path_7" clipPathUnits="userSpaceOnUse">
            <path d="M 502,1008 L 997,1008 997,1611 502,1611 502,1008 Z"/>
           </clipPath>
          </defs>
          <g clip-path="url(#clip_path_7)">
           <path fill="rgb(0,0,0)" stroke="none" d="M 848,1156 C 857,1156 866,1156 866,1145 866,1135 857,1135 848,1135 L 564,1135 C 555,1135 546,1135 546,1145 546,1156 555,1156 564,1156 L 848,1156 848,1156 Z"/>
           <path fill="rgb(0,0,0)" stroke="none" d="M 940,1156 C 911,1178 897,1199 893,1206 869,1243 865,1276 865,1276 865,1283 871,1283 875,1283 884,1283 885,1281 887,1272 899,1220 930,1176 989,1152 995,1150 997,1149 997,1145 997,1142 994,1140 993,1139 970,1131 906,1104 886,1016 885,1010 884,1008 875,1008 871,1008 865,1008 865,1014 865,1015 869,1048 891,1084 902,1100 917,1118 940,1135 L 550,1135 C 540,1135 531,1135 531,1145 531,1156 540,1156 550,1156 L 940,1156 940,1156 Z"/>
           <path fill="rgb(0,0,0)" stroke="none" d="M 877,1305 C 878,1302 879,1299 879,1295 879,1287 872,1281 863,1281 858,1281 844,1285 842,1304 832,1284 814,1271 793,1271 733,1271 668,1344 668,1420 668,1472 700,1503 738,1503 769,1503 794,1478 799,1473 L 799,1473 C 788,1520 782,1542 782,1543 780,1547 762,1599 706,1599 697,1599 679,1599 665,1594 680,1589 686,1576 686,1567 686,1558 680,1548 666,1548 655,1548 638,1558 638,1579 638,1600 657,1611 708,1611 773,1611 811,1570 819,1538 L 877,1305 877,1305 Z M 809,1436 C 806,1450 794,1463 782,1473 771,1482 755,1492 740,1492 713,1492 705,1464 705,1443 705,1418 721,1356 735,1329 749,1303 772,1282 794,1282 828,1282 836,1325 836,1328 836,1330 835,1333 834,1335 L 809,1436 809,1436 Z"/>
          </g>
         </g>
        </g>
       </g>
      </g>
      <g class="Group">
       <g class="Group">
        <g class="com.sun.star.drawing.CustomShape">
         <g id="id34">
          <rect class="BoundingBox" stroke="none" fill="none" x="1430" y="4897" width="380" height="369"/>
          <path fill="rgb(255,255,255)" stroke="none" d="M 1578,4930 C 1607,4922 1634,4921 1663,4928 1692,4935 1715,4948 1736,4968 1757,4988 1770,5010 1777,5038 1785,5066 1785,5091 1777,5119 1769,5148 1756,5170 1734,5191 1713,5211 1690,5225 1661,5232 1632,5240 1606,5241 1577,5234 1548,5227 1525,5214 1504,5194 1483,5174 1470,5152 1462,5124 1454,5096 1455,5071 1462,5043 1470,5014 1484,4992 1505,4971 1526,4951 1549,4938 1578,4930 L 1578,4930 Z"/>
          <path fill="none" stroke="rgb(0,0,0)" stroke-width="51" stroke-linejoin="round" d="M 1578,4930 C 1607,4922 1634,4921 1663,4928 1692,4935 1715,4948 1736,4968 1757,4988 1770,5010 1777,5038 1785,5066 1785,5091 1777,5119 1769,5148 1756,5170 1734,5191 1713,5211 1690,5225 1661,5232 1632,5240 1606,5241 1577,5234 1548,5227 1525,5214 1504,5194 1483,5174 1470,5152 1462,5124 1454,5096 1455,5071 1462,5043 1470,5014 1484,4992 1505,4971 1526,4951 1549,4938 1578,4930 Z"/>
         </g>
        </g>
        <g class="com.sun.star.drawing.CustomShape">
         <g id="id35">
          <rect class="BoundingBox" stroke="none" fill="none" x="1464" y="4932" width="164" height="197"/>
          <path fill="rgb(0,0,0)" stroke="none" d="M 1470,5128 L 1468,5120 1467,5112 1466,5104 1465,5096 1465,5089 1465,5081 1465,5072 1466,5065 1468,5057 1469,5048 1472,5041 1474,5034 1477,5026 1481,5018 1484,5011 1488,5005 1493,4997 1498,4991 1503,4984 1508,4979 1514,4973 1521,4967 1527,4962 1534,4957 1540,4952 1548,4948 1555,4944 1562,4941 1570,4938 1578,4935 1586,4933 1627,5083 1470,5128 Z"/>
         </g>
        </g>
        <g class="com.sun.star.drawing.CustomShape">
         <g id="id36">
          <rect class="BoundingBox" stroke="none" fill="none" x="1626" y="5032" width="172" height="207"/>
          <path fill="rgb(0,0,0)" stroke="none" d="M 1790,5032 L 1793,5040 1794,5049 1795,5057 1796,5065 1796,5073 1797,5082 1796,5091 1795,5098 1793,5107 1791,5115 1789,5124 1787,5132 1783,5139 1779,5147 1776,5154 1772,5161 1767,5169 1761,5176 1756,5182 1750,5189 1745,5195 1738,5201 1731,5207 1724,5212 1717,5216 1709,5221 1702,5225 1694,5228 1685,5232 1678,5235 1669,5237 1626,5079 1790,5032 Z"/>
         </g>
        </g>
       </g>
      </g>
      <g class="com.sun.star.drawing.LineShape">
       <g id="id37">
        <rect class="BoundingBox" stroke="none" fill="none" x="1635" y="5232" width="138" height="1092"/>
        <path fill="none" stroke="rgb(0,0,0)" stroke-width="25" stroke-linejoin="round" d="M 1648,5245 L 1759,6310"/>
       </g>
      </g>
      <g class="Group">
       <g class="Graphic">
        <g id="id38">
         <rect class="BoundingBox" stroke="none" fill="none" x="1823" y="6102" width="9682" height="567"/>
         <path fill="rgb(0,0,0)" stroke="none" d="M 1933,6319 L 1933,6284 1858,6290 1858,6306 C 1895,6306 1899,6309 1899,6332 L 1899,6579 C 1899,6602 1893,6602 1858,6602 L 1858,6619 C 1876,6618 1903,6617 1917,6617 1931,6617 1958,6618 1976,6619 L 1976,6602 C 1941,6602 1935,6602 1935,6579 L 1935,6490 1935,6486 C 1938,6494 1960,6522 2000,6522 2063,6522 2117,6471 2117,6403 2117,6336 2066,6284 2007,6284 1966,6284 1944,6307 1933,6319 L 1933,6319 Z M 1935,6457 L 1935,6339 C 1950,6312 1976,6297 2003,6297 2042,6297 2074,6343 2074,6403 2074,6467 2037,6511 1998,6511 1977,6511 1957,6500 1942,6479 1935,6468 1935,6467 1935,6457 L 1935,6457 Z"/>
         <path fill="rgb(0,0,0)" stroke="none" d="M 2399,6404 C 2399,6337 2346,6281 2282,6281 2216,6281 2165,6338 2165,6404 2165,6472 2220,6522 2282,6522 2345,6522 2399,6471 2399,6404 L 2399,6404 Z M 2282,6509 C 2259,6509 2236,6498 2222,6474 2209,6451 2209,6419 2209,6400 2209,6379 2209,6351 2221,6328 2236,6303 2260,6292 2282,6292 2305,6292 2327,6304 2341,6327 2355,6349 2355,6380 2355,6400 2355,6419 2355,6447 2343,6470 2332,6494 2308,6509 2282,6509 L 2282,6509 Z"/>
         <path fill="rgb(0,0,0)" stroke="none" d="M 2507,6284 L 2433,6290 2433,6306 C 2468,6306 2472,6309 2472,6335 L 2472,6477 C 2472,6500 2467,6500 2431,6500 L 2431,6517 C 2448,6516 2477,6515 2489,6515 2508,6515 2526,6516 2544,6517 L 2544,6500 C 2509,6500 2507,6498 2507,6477 L 2507,6284 2507,6284 Z M 2509,6192 C 2509,6176 2496,6164 2481,6164 2465,6164 2453,6179 2453,6192 2453,6207 2465,6220 2481,6220 2496,6220 2509,6209 2509,6192 L 2509,6192 Z"/>
         <path fill="rgb(0,0,0)" stroke="none" d="M 2618,6336 L 2618,6477 C 2618,6500 2612,6500 2577,6500 L 2577,6517 C 2596,6516 2622,6515 2637,6515 2650,6515 2678,6516 2696,6517 L 2696,6500 C 2660,6500 2655,6500 2655,6477 L 2655,6380 C 2655,6325 2692,6296 2726,6296 2759,6296 2765,6324 2765,6354 L 2765,6477 C 2765,6500 2759,6500 2724,6500 L 2724,6517 C 2742,6516 2769,6515 2783,6515 2797,6515 2824,6516 2842,6517 L 2842,6500 C 2815,6500 2802,6500 2801,6484 L 2801,6384 C 2801,6339 2801,6322 2785,6303 2777,6294 2760,6284 2729,6284 2691,6284 2666,6307 2651,6339 L 2651,6284 2577,6290 2577,6306 C 2614,6306 2618,6310 2618,6336 L 2618,6336 Z"/>
         <path fill="rgb(0,0,0)" stroke="none" d="M 2930,6306 L 3005,6306 3005,6290 2930,6290 2930,6193 2916,6193 C 2916,6236 2900,6292 2848,6294 L 2848,6306 2893,6306 2893,6451 C 2893,6516 2942,6522 2961,6522 2999,6522 3013,6485 3013,6451 L 3013,6421 3000,6421 3000,6450 C 3000,6489 2984,6509 2965,6509 2930,6509 2930,6461 2930,6452 L 2930,6306 2930,6306 Z"/>
         <path fill="rgb(0,0,0)" stroke="none" d="M 3277,6336 L 3277,6477 C 3277,6500 3271,6500 3236,6500 L 3236,6517 C 3254,6516 3281,6515 3296,6515 3309,6515 3337,6516 3355,6517 L 3355,6500 C 3319,6500 3313,6500 3313,6477 L 3313,6380 C 3313,6325 3351,6296 3385,6296 3418,6296 3424,6324 3424,6354 L 3424,6477 C 3424,6500 3418,6500 3383,6500 L 3383,6517 C 3401,6516 3428,6515 3442,6515 3456,6515 3483,6516 3501,6517 L 3501,6500 C 3466,6500 3460,6500 3460,6477 L 3460,6380 C 3460,6325 3497,6296 3531,6296 3564,6296 3570,6324 3570,6354 L 3570,6477 C 3570,6500 3564,6500 3529,6500 L 3529,6517 C 3547,6516 3574,6515 3589,6515 3602,6515 3630,6516 3648,6517 L 3648,6500 C 3620,6500 3607,6500 3607,6484 L 3607,6384 C 3607,6339 3607,6322 3590,6303 3583,6294 3565,6284 3535,6284 3491,6284 3467,6316 3458,6336 3451,6290 3412,6284 3388,6284 3350,6284 3325,6307 3310,6339 L 3310,6284 3236,6290 3236,6306 C 3273,6306 3277,6310 3277,6336 L 3277,6336 Z"/>
         <path fill="rgb(0,0,0)" stroke="none" d="M 3834,6477 C 3836,6498 3850,6520 3875,6520 3886,6520 3918,6512 3918,6470 L 3918,6440 3905,6440 3905,6470 C 3905,6500 3892,6503 3886,6503 3869,6503 3867,6480 3867,6477 L 3867,6372 C 3867,6350 3867,6329 3848,6310 3827,6289 3801,6281 3775,6281 3732,6281 3696,6306 3696,6340 3696,6356 3706,6365 3720,6365 3735,6365 3744,6354 3744,6341 3744,6334 3742,6317 3717,6317 3732,6298 3757,6292 3774,6292 3800,6292 3830,6313 3830,6360 L 3830,6379 C 3803,6381 3766,6382 3733,6398 3694,6416 3680,6443 3680,6467 3680,6509 3732,6522 3765,6522 3800,6522 3824,6501 3834,6477 L 3834,6477 Z M 3830,6390 L 3830,6443 C 3830,6493 3792,6511 3769,6511 3743,6511 3721,6492 3721,6466 3721,6437 3743,6393 3830,6390 L 3830,6390 Z"/>
         <path fill="rgb(0,0,0)" stroke="none" d="M 4032,6414 C 4043,6417 4086,6425 4086,6463 4086,6490 4068,6511 4027,6511 3983,6511 3964,6481 3954,6436 3952,6429 3951,6427 3946,6427 3939,6427 3939,6431 3939,6440 L 3939,6510 C 3939,6519 3939,6522 3945,6522 3948,6522 3948,6522 3958,6512 3959,6511 3959,6510 3969,6500 3992,6522 4016,6522 4027,6522 4087,6522 4112,6487 4112,6449 4112,6421 4096,6406 4090,6399 4072,6382 4052,6378 4029,6374 4000,6368 3965,6361 3965,6331 3965,6312 3978,6291 4024,6291 4082,6291 4084,6338 4085,6354 4086,6359 4091,6359 4092,6359 4098,6359 4098,6357 4098,6347 L 4098,6293 C 4098,6284 4098,6281 4093,6281 4090,6281 4089,6281 4082,6287 4081,6289 4075,6294 4073,6296 4053,6281 4032,6281 4024,6281 3959,6281 3939,6316 3939,6346 3939,6364 3948,6379 3962,6390 3979,6404 3994,6407 4032,6414 L 4032,6414 Z"/>
         <path fill="rgb(0,0,0)" stroke="none" d="M 4239,6414 C 4251,6417 4294,6425 4294,6463 4294,6490 4276,6511 4235,6511 4190,6511 4171,6481 4161,6436 4160,6429 4159,6427 4154,6427 4147,6427 4147,6431 4147,6440 L 4147,6510 C 4147,6519 4147,6522 4153,6522 4156,6522 4156,6522 4166,6512 4167,6511 4167,6510 4177,6500 4200,6522 4224,6522 4235,6522 4295,6522 4320,6487 4320,6449 4320,6421 4304,6406 4297,6399 4280,6382 4259,6378 4237,6374 4208,6368 4172,6361 4172,6331 4172,6312 4186,6291 4232,6291 4290,6291 4292,6338 4293,6354 4294,6359 4298,6359 4300,6359 4306,6359 4306,6357 4306,6347 L 4306,6293 C 4306,6284 4306,6281 4301,6281 4298,6281 4297,6281 4290,6287 4288,6289 4283,6294 4281,6296 4261,6281 4239,6281 4232,6281 4167,6281 4147,6316 4147,6346 4147,6364 4156,6379 4170,6390 4187,6404 4201,6407 4239,6414 L 4239,6414 Z"/>
         <path fill="rgb(0,0,0)" stroke="none" d="M 4689,6477 C 4691,6498 4705,6520 4730,6520 4741,6520 4773,6512 4773,6470 L 4773,6440 4760,6440 4760,6470 C 4760,6500 4747,6503 4741,6503 4724,6503 4722,6480 4722,6477 L 4722,6372 C 4722,6350 4722,6329 4703,6310 4682,6289 4656,6281 4630,6281 4587,6281 4551,6306 4551,6340 4551,6356 4561,6365 4575,6365 4590,6365 4599,6354 4599,6341 4599,6334 4597,6317 4572,6317 4587,6298 4612,6292 4629,6292 4655,6292 4685,6313 4685,6360 L 4685,6379 C 4658,6381 4621,6382 4588,6398 4549,6416 4536,6443 4536,6467 4536,6509 4587,6522 4620,6522 4655,6522 4679,6501 4689,6477 L 4689,6477 Z M 4685,6390 L 4685,6443 C 4685,6493 4647,6511 4624,6511 4598,6511 4576,6492 4576,6466 4576,6437 4598,6393 4685,6390 L 4685,6390 Z"/>
         <path fill="rgb(0,0,0)" stroke="none" d="M 4887,6414 C 4898,6417 4941,6425 4941,6463 4941,6490 4923,6511 4882,6511 4838,6511 4819,6481 4809,6436 4807,6429 4806,6427 4801,6427 4794,6427 4794,6431 4794,6440 L 4794,6510 C 4794,6519 4794,6522 4800,6522 4803,6522 4803,6522 4813,6512 4814,6511 4814,6510 4824,6500 4847,6522 4871,6522 4882,6522 4942,6522 4967,6487 4967,6449 4967,6421 4951,6406 4945,6399 4927,6382 4907,6378 4884,6374 4855,6368 4820,6361 4820,6331 4820,6312 4833,6291 4879,6291 4937,6291 4939,6338 4940,6354 4941,6359 4946,6359 4947,6359 4954,6359 4954,6357 4954,6347 L 4954,6293 C 4954,6284 4954,6281 4948,6281 4945,6281 4944,6281 4937,6287 4936,6289 4930,6294 4928,6296 4908,6281 4887,6281 4879,6281 4814,6281 4794,6316 4794,6346 4794,6364 4803,6379 4817,6390 4834,6404 4849,6407 4887,6414 L 4887,6414 Z"/>
         <path fill="rgb(0,0,0)" stroke="none" d="M 5094,6414 C 5106,6417 5149,6425 5149,6463 5149,6490 5131,6511 5090,6511 5045,6511 5026,6481 5016,6436 5015,6429 5014,6427 5009,6427 5002,6427 5002,6431 5002,6440 L 5002,6510 C 5002,6519 5002,6522 5008,6522 5011,6522 5011,6522 5021,6512 5022,6511 5022,6510 5032,6500 5055,6522 5079,6522 5090,6522 5150,6522 5175,6487 5175,6449 5175,6421 5159,6406 5152,6399 5135,6382 5115,6378 5092,6374 5063,6368 5028,6361 5028,6331 5028,6312 5041,6291 5087,6291 5145,6291 5147,6338 5148,6354 5149,6359 5154,6359 5155,6359 5161,6359 5161,6357 5161,6347 L 5161,6293 C 5161,6284 5161,6281 5156,6281 5153,6281 5152,6281 5145,6287 5144,6289 5138,6294 5136,6296 5116,6281 5094,6281 5087,6281 5022,6281 5002,6316 5002,6346 5002,6364 5011,6379 5025,6390 5042,6404 5057,6407 5094,6414 L 5094,6414 Z"/>
         <path fill="rgb(0,0,0)" stroke="none" d="M 5399,6475 L 5399,6522 5475,6517 5475,6500 C 5438,6500 5434,6497 5434,6471 L 5434,6284 5356,6290 5356,6306 C 5393,6306 5397,6310 5397,6336 L 5397,6429 C 5397,6475 5372,6511 5333,6511 5289,6511 5287,6486 5287,6459 L 5287,6284 5210,6290 5210,6306 C 5251,6306 5251,6308 5251,6354 L 5251,6433 C 5251,6474 5251,6522 5331,6522 5360,6522 5384,6508 5399,6475 L 5399,6475 Z"/>
         <path fill="rgb(0,0,0)" stroke="none" d="M 5544,6336 L 5544,6477 C 5544,6500 5538,6500 5502,6500 L 5502,6517 C 5521,6516 5548,6515 5562,6515 5576,6515 5603,6516 5621,6517 L 5621,6500 C 5586,6500 5580,6500 5580,6477 L 5580,6380 C 5580,6325 5617,6296 5651,6296 5684,6296 5690,6324 5690,6354 L 5690,6477 C 5690,6500 5684,6500 5649,6500 L 5649,6517 C 5667,6516 5694,6515 5709,6515 5722,6515 5750,6516 5768,6517 L 5768,6500 C 5732,6500 5726,6500 5726,6477 L 5726,6380 C 5726,6325 5764,6296 5798,6296 5831,6296 5837,6324 5837,6354 L 5837,6477 C 5837,6500 5831,6500 5796,6500 L 5796,6517 C 5814,6516 5841,6515 5855,6515 5869,6515 5896,6516 5914,6517 L 5914,6500 C 5887,6500 5874,6500 5873,6484 L 5873,6384 C 5873,6339 5873,6322 5857,6303 5849,6294 5832,6284 5801,6284 5757,6284 5734,6316 5725,6336 5717,6290 5678,6284 5655,6284 5616,6284 5592,6307 5577,6339 L 5577,6284 5502,6290 5502,6306 C 5539,6306 5544,6310 5544,6336 L 5544,6336 Z"/>
         <path fill="rgb(0,0,0)" stroke="none" d="M 6015,6319 L 6015,6284 5940,6290 5940,6306 C 5977,6306 5981,6309 5981,6332 L 5981,6579 C 5981,6602 5975,6602 5940,6602 L 5940,6619 C 5957,6618 5985,6617 5999,6617 6013,6617 6040,6618 6058,6619 L 6058,6602 C 6023,6602 6017,6602 6017,6579 L 6017,6490 6017,6486 C 6020,6494 6042,6522 6082,6522 6145,6522 6199,6471 6199,6403 6199,6336 6148,6284 6089,6284 6048,6284 6026,6307 6015,6319 L 6015,6319 Z M 6017,6457 L 6017,6339 C 6032,6312 6058,6297 6085,6297 6124,6297 6156,6343 6156,6403 6156,6467 6119,6511 6080,6511 6059,6511 6039,6500 6024,6479 6017,6468 6017,6467 6017,6457 L 6017,6457 Z"/>
         <path fill="rgb(0,0,0)" stroke="none" d="M 6309,6306 L 6384,6306 6384,6290 6309,6290 6309,6193 6296,6193 C 6295,6236 6279,6292 6228,6294 L 6228,6306 6272,6306 6272,6451 C 6272,6516 6321,6522 6340,6522 6378,6522 6393,6485 6393,6451 L 6393,6421 6379,6421 6379,6450 C 6379,6489 6364,6509 6344,6509 6309,6509 6309,6461 6309,6452 L 6309,6306 6309,6306 Z"/>
         <path fill="rgb(0,0,0)" stroke="none" d="M 6516,6284 L 6442,6290 6442,6306 C 6476,6306 6481,6309 6481,6335 L 6481,6477 C 6481,6500 6475,6500 6440,6500 L 6440,6517 C 6457,6516 6485,6515 6498,6515 6516,6515 6535,6516 6553,6517 L 6553,6500 C 6518,6500 6516,6498 6516,6477 L 6516,6284 6516,6284 Z M 6518,6192 C 6518,6176 6505,6164 6490,6164 6474,6164 6462,6179 6462,6192 6462,6207 6474,6220 6490,6220 6505,6220 6518,6209 6518,6192 L 6518,6192 Z"/>
         <path fill="rgb(0,0,0)" stroke="none" d="M 6817,6404 C 6817,6337 6765,6281 6701,6281 6635,6281 6584,6338 6584,6404 6584,6472 6639,6522 6700,6522 6764,6522 6817,6471 6817,6404 L 6817,6404 Z M 6701,6509 C 6678,6509 6655,6498 6641,6474 6628,6451 6628,6419 6628,6400 6628,6379 6628,6351 6640,6328 6654,6303 6679,6292 6700,6292 6723,6292 6746,6304 6760,6327 6774,6349 6774,6380 6774,6400 6774,6419 6774,6447 6762,6470 6750,6494 6727,6509 6701,6509 L 6701,6509 Z"/>
         <path fill="rgb(0,0,0)" stroke="none" d="M 6891,6336 L 6891,6477 C 6891,6500 6885,6500 6849,6500 L 6849,6517 C 6868,6516 6895,6515 6909,6515 6923,6515 6950,6516 6968,6517 L 6968,6500 C 6933,6500 6927,6500 6927,6477 L 6927,6380 C 6927,6325 6964,6296 6998,6296 7031,6296 7037,6324 7037,6354 L 7037,6477 C 7037,6500 7031,6500 6996,6500 L 6996,6517 C 7014,6516 7041,6515 7056,6515 7069,6515 7097,6516 7115,6517 L 7115,6500 C 7087,6500 7074,6500 7073,6484 L 7073,6384 C 7073,6339 7073,6322 7057,6303 7050,6294 7032,6284 7002,6284 6963,6284 6939,6307 6924,6339 L 6924,6284 6849,6290 6849,6306 C 6886,6306 6891,6310 6891,6336 L 6891,6336 Z"/>
         <path fill="rgb(0,0,0)" stroke="none" d="M 7476,6643 C 7476,6641 7476,6640 7467,6631 7401,6565 7384,6466 7384,6385 7384,6293 7404,6202 7469,6136 7476,6130 7476,6129 7476,6127 7476,6123 7473,6122 7470,6122 7465,6122 7418,6158 7386,6224 7360,6282 7353,6341 7353,6385 7353,6426 7359,6490 7388,6549 7420,6614 7465,6648 7470,6648 7473,6648 7476,6647 7476,6643 L 7476,6643 Z"/>
         <path fill="rgb(0,0,0)" stroke="none" d="M 7616,6414 C 7627,6417 7671,6425 7671,6463 7671,6490 7652,6511 7611,6511 7567,6511 7548,6481 7538,6436 7536,6429 7536,6427 7530,6427 7523,6427 7523,6431 7523,6440 L 7523,6510 C 7523,6519 7523,6522 7529,6522 7532,6522 7532,6522 7542,6512 7543,6511 7543,6510 7553,6500 7576,6522 7600,6522 7611,6522 7672,6522 7696,6487 7696,6449 7696,6421 7680,6406 7674,6399 7656,6382 7636,6378 7614,6374 7584,6368 7549,6361 7549,6331 7549,6312 7562,6291 7608,6291 7666,6291 7668,6338 7669,6354 7670,6359 7675,6359 7676,6359 7683,6359 7683,6357 7683,6347 L 7683,6293 C 7683,6284 7683,6281 7677,6281 7674,6281 7673,6281 7666,6287 7665,6289 7659,6294 7657,6296 7637,6281 7616,6281 7608,6281 7543,6281 7523,6316 7523,6346 7523,6364 7532,6379 7546,6390 7563,6404 7578,6407 7616,6414 L 7616,6414 Z"/>
         <path fill="rgb(0,0,0)" stroke="none" d="M 7807,6284 L 7733,6290 7733,6306 C 7768,6306 7772,6309 7772,6335 L 7772,6477 C 7772,6500 7767,6500 7731,6500 L 7731,6517 C 7748,6516 7777,6515 7789,6515 7808,6515 7826,6516 7844,6517 L 7844,6500 C 7809,6500 7807,6498 7807,6477 L 7807,6284 7807,6284 Z M 7809,6192 C 7809,6176 7796,6164 7781,6164 7765,6164 7754,6179 7754,6192 7754,6207 7765,6220 7781,6220 7796,6220 7809,6209 7809,6192 L 7809,6192 Z"/>
         <path fill="rgb(0,0,0)" stroke="none" d="M 7918,6336 L 7918,6477 C 7918,6500 7913,6500 7877,6500 L 7877,6517 C 7896,6516 7923,6515 7937,6515 7951,6515 7978,6516 7996,6517 L 7996,6500 C 7961,6500 7955,6500 7955,6477 L 7955,6380 C 7955,6325 7992,6296 8026,6296 8059,6296 8065,6324 8065,6354 L 8065,6477 C 8065,6500 8059,6500 8024,6500 L 8024,6517 C 8042,6516 8069,6515 8083,6515 8097,6515 8124,6516 8142,6517 L 8142,6500 C 8115,6500 8102,6500 8101,6484 L 8101,6384 C 8101,6339 8101,6322 8085,6303 8078,6294 8060,6284 8030,6284 7991,6284 7966,6307 7952,6339 L 7952,6284 7877,6290 7877,6306 C 7914,6306 7918,6310 7918,6336 L 7918,6336 Z"/>
         <path fill="rgb(0,0,0)" stroke="none" d="M 8270,6426 C 8224,6426 8224,6373 8224,6361 8224,6347 8225,6330 8233,6317 8237,6311 8249,6296 8270,6296 8316,6296 8316,6349 8316,6361 8316,6375 8316,6392 8308,6405 8303,6411 8291,6426 8270,6426 L 8270,6426 Z M 8209,6447 C 8209,6444 8209,6432 8218,6422 8239,6437 8260,6438 8270,6438 8319,6438 8356,6402 8356,6361 8356,6342 8347,6322 8334,6310 8353,6292 8372,6290 8381,6290 8382,6290 8385,6290 8387,6290 8381,6292 8378,6298 8378,6304 8378,6313 8385,6320 8394,6320 8399,6320 8409,6316 8409,6304 8409,6295 8403,6278 8382,6278 8371,6278 8348,6281 8326,6303 8304,6286 8282,6284 8270,6284 8221,6284 8185,6320 8185,6361 8185,6384 8196,6404 8210,6415 8203,6423 8193,6440 8193,6459 8193,6475 8200,6495 8216,6506 8185,6514 8168,6537 8168,6558 8168,6596 8220,6625 8284,6625 8347,6625 8401,6598 8401,6557 8401,6539 8394,6512 8367,6497 8339,6482 8309,6482 8277,6482 8263,6482 8241,6482 8237,6482 8220,6480 8209,6463 8209,6447 L 8209,6447 Z M 8285,6613 C 8232,6613 8195,6586 8195,6558 8195,6534 8215,6514 8239,6513 L 8270,6513 C 8315,6513 8374,6513 8374,6558 8374,6587 8337,6613 8285,6613 L 8285,6613 Z"/>
         <path fill="rgb(0,0,0)" stroke="none" d="M 8510,6151 L 8434,6157 8434,6173 C 8471,6173 8475,6177 8475,6203 L 8475,6477 C 8475,6500 8469,6500 8434,6500 L 8434,6517 C 8452,6516 8479,6515 8493,6515 8506,6515 8532,6516 8551,6517 L 8551,6500 C 8516,6500 8510,6500 8510,6477 L 8510,6151 8510,6151 Z"/>
         <path fill="rgb(0,0,0)" stroke="none" d="M 8622,6384 C 8625,6306 8670,6292 8688,6292 8742,6292 8747,6363 8747,6384 L 8622,6384 8622,6384 Z M 8622,6395 L 8769,6395 C 8780,6395 8782,6395 8782,6384 8782,6332 8753,6281 8688,6281 8626,6281 8578,6335 8578,6401 8578,6471 8633,6522 8694,6522 8758,6522 8782,6464 8782,6454 8782,6449 8778,6448 8775,6448 8770,6448 8769,6451 8768,6455 8750,6509 8702,6509 8697,6509 8671,6509 8650,6493 8637,6474 8622,6449 8622,6414 8622,6395 L 8622,6395 Z"/>
         <path fill="rgb(0,0,0)" stroke="none" d="M 9064,6306 L 9140,6306 9140,6290 9064,6290 9064,6193 9051,6193 C 9051,6236 9035,6292 8983,6294 L 8983,6306 9028,6306 9028,6451 C 9028,6516 9077,6522 9096,6522 9133,6522 9148,6485 9148,6451 L 9148,6421 9135,6421 9135,6450 C 9135,6489 9119,6509 9100,6509 9064,6509 9064,6461 9064,6452 L 9064,6306 9064,6306 Z"/>
         <path fill="rgb(0,0,0)" stroke="none" d="M 9271,6284 L 9198,6290 9198,6306 C 9232,6306 9237,6309 9237,6335 L 9237,6477 C 9237,6500 9231,6500 9195,6500 L 9195,6517 C 9212,6516 9241,6515 9253,6515 9272,6515 9290,6516 9308,6517 L 9308,6500 C 9274,6500 9271,6498 9271,6477 L 9271,6284 9271,6284 Z M 9274,6192 C 9274,6176 9260,6164 9246,6164 9229,6164 9218,6179 9218,6192 9218,6207 9229,6220 9246,6220 9260,6220 9274,6209 9274,6192 L 9274,6192 Z"/>
         <path fill="rgb(0,0,0)" stroke="none" d="M 9413,6342 L 9413,6284 9339,6290 9339,6306 C 9376,6306 9380,6310 9380,6336 L 9380,6477 C 9380,6500 9375,6500 9339,6500 L 9339,6517 C 9360,6516 9385,6515 9399,6515 9420,6515 9445,6515 9466,6517 L 9466,6500 9455,6500 C 9416,6500 9415,6494 9415,6476 L 9415,6394 C 9415,6342 9437,6296 9477,6296 9481,6296 9482,6296 9483,6296 9482,6297 9471,6303 9471,6317 9471,6331 9482,6339 9494,6339 9503,6339 9516,6333 9516,6316 9516,6299 9500,6284 9477,6284 9439,6284 9420,6319 9413,6342 L 9413,6342 Z"/>
         <path fill="rgb(0,0,0)" stroke="none" d="M 9590,6384 C 9593,6306 9637,6292 9655,6292 9710,6292 9715,6363 9715,6384 L 9590,6384 9590,6384 Z M 9589,6395 L 9737,6395 C 9748,6395 9750,6395 9750,6384 9750,6332 9721,6281 9655,6281 9594,6281 9546,6335 9546,6401 9546,6471 9601,6522 9662,6522 9726,6522 9750,6464 9750,6454 9750,6449 9745,6448 9743,6448 9738,6448 9737,6451 9736,6455 9718,6509 9670,6509 9665,6509 9638,6509 9617,6493 9605,6474 9589,6449 9589,6414 9589,6395 L 9589,6395 Z"/>
         <path fill="rgb(0,0,0)" stroke="none" d="M 9999,6336 L 9999,6477 C 9999,6500 9993,6500 9958,6500 L 9958,6517 C 9976,6516 10003,6515 10017,6515 10031,6515 10058,6516 10076,6517 L 10076,6500 C 10041,6500 10035,6500 10035,6477 L 10035,6380 C 10035,6325 10073,6296 10106,6296 10140,6296 10145,6324 10145,6354 L 10145,6477 C 10145,6500 10140,6500 10104,6500 L 10104,6517 C 10123,6516 10150,6515 10164,6515 10178,6515 10205,6516 10223,6517 L 10223,6500 C 10188,6500 10182,6500 10182,6477 L 10182,6380 C 10182,6325 10219,6296 10253,6296 10286,6296 10292,6324 10292,6354 L 10292,6477 C 10292,6500 10286,6500 10251,6500 L 10251,6517 C 10269,6516 10296,6515 10310,6515 10324,6515 10352,6516 10369,6517 L 10369,6500 C 10342,6500 10329,6500 10328,6484 L 10328,6384 C 10328,6339 10328,6322 10312,6303 10305,6294 10287,6284 10257,6284 10212,6284 10189,6316 10180,6336 10173,6290 10134,6284 10110,6284 10072,6284 10047,6307 10032,6339 L 10032,6284 9958,6290 9958,6306 C 9995,6306 9999,6310 9999,6336 L 9999,6336 Z"/>
         <path fill="rgb(0,0,0)" stroke="none" d="M 10628,6404 C 10628,6337 10576,6281 10512,6281 10446,6281 10395,6338 10395,6404 10395,6472 10450,6522 10511,6522 10575,6522 10628,6471 10628,6404 L 10628,6404 Z M 10512,6509 C 10489,6509 10466,6498 10452,6474 10439,6451 10439,6419 10439,6400 10439,6379 10439,6351 10451,6328 10466,6303 10490,6292 10511,6292 10535,6292 10557,6304 10571,6327 10585,6349 10585,6380 10585,6400 10585,6419 10585,6447 10573,6470 10561,6494 10538,6509 10512,6509 L 10512,6509 Z"/>
         <path fill="rgb(0,0,0)" stroke="none" d="M 10859,6488 L 10859,6522 10936,6517 10936,6500 C 10899,6500 10895,6497 10895,6471 L 10895,6151 10819,6157 10819,6173 C 10856,6173 10860,6177 10860,6203 L 10860,6317 C 10845,6298 10822,6284 10794,6284 10732,6284 10676,6336 10676,6403 10676,6470 10728,6522 10788,6522 10822,6522 10845,6504 10859,6488 L 10859,6488 Z M 10859,6347 L 10859,6454 C 10859,6464 10859,6465 10853,6474 10837,6499 10813,6511 10791,6511 10767,6511 10748,6497 10735,6477 10722,6456 10720,6426 10720,6404 10720,6384 10721,6353 10736,6329 10747,6313 10767,6296 10796,6296 10814,6296 10836,6303 10853,6327 10859,6336 10859,6337 10859,6347 L 10859,6347 Z"/>
         <path fill="rgb(0,0,0)" stroke="none" d="M 11010,6384 C 11013,6306 11058,6292 11076,6292 11130,6292 11135,6363 11135,6384 L 11010,6384 11010,6384 Z M 11010,6395 L 11157,6395 C 11168,6395 11170,6395 11170,6384 11170,6332 11141,6281 11076,6281 11014,6281 10966,6335 10966,6401 10966,6471 11021,6522 11082,6522 11146,6522 11170,6464 11170,6454 11170,6449 11166,6448 11163,6448 11158,6448 11157,6451 11156,6455 11138,6509 11090,6509 11085,6509 11059,6509 11038,6493 11025,6474 11010,6449 11010,6414 11010,6395 L 11010,6395 Z"/>
         <path fill="rgb(0,0,0)" stroke="none" d="M 11279,6151 L 11203,6157 11203,6173 C 11240,6173 11244,6177 11244,6203 L 11244,6477 C 11244,6500 11238,6500 11203,6500 L 11203,6517 C 11220,6516 11248,6515 11261,6515 11274,6515 11300,6516 11320,6517 L 11320,6500 C 11285,6500 11279,6500 11279,6477 L 11279,6151 11279,6151 Z"/>
         <path fill="rgb(0,0,0)" stroke="none" d="M 11484,6385 C 11484,6344 11478,6280 11449,6221 11418,6156 11372,6122 11367,6122 11364,6122 11362,6124 11362,6127 11362,6129 11362,6130 11372,6139 11424,6191 11454,6275 11454,6385 11454,6475 11434,6568 11369,6634 11362,6640 11362,6641 11362,6643 11362,6646 11364,6648 11367,6648 11372,6648 11420,6612 11451,6546 11478,6488 11484,6429 11484,6385 L 11484,6385 Z"/>
        </g>
       </g>
      </g>
     </g>
    </g>
   </g>
  </g>
 </g>
</svg>